<svg width="148" height="45" viewBox="0 0 148 45" fill="none" xmlns="http://www.w3.org/2000/svg">
<path d="M48.6459 38.9175H49.5878L51.0642 43.4735H50.1987L49.5114 41.0555C49.3587 40.5719 49.2314 40.0628 49.1041 39.5538H49.0787C48.9514 40.0628 48.8241 40.5719 48.6714 41.0555L47.9586 43.4735H47.144L48.6459 38.9175ZM48.035 41.6154H50.1733V42.2518H48.035V41.6154Z" fill="white"/>
<path d="M51.5479 44.1091C51.5479 43.8292 51.726 43.5746 52.0315 43.371V43.3456C51.8533 43.2438 51.726 43.0401 51.726 42.7856C51.726 42.5311 51.9042 42.2766 52.1079 42.1493V42.1239C51.8788 41.9457 51.6497 41.6148 51.6497 41.2076C51.6497 40.4185 52.2861 39.9858 52.9988 39.9858C53.177 39.9858 53.3552 40.0113 53.5079 40.0622H54.7298V40.6476H54.0934C54.1953 40.7749 54.2971 40.9785 54.2971 41.233C54.2971 41.9966 53.7116 42.4038 52.9988 42.4038C52.8461 42.4038 52.6934 42.3784 52.5406 42.302C52.4388 42.3784 52.3624 42.4802 52.3624 42.6329C52.3624 42.8365 52.4897 42.9383 52.9225 42.9383H53.5334C54.348 42.9383 54.7807 43.1929 54.7807 43.7783C54.7807 44.4655 54.068 45 52.9479 45C52.1588 45 51.5479 44.72 51.5479 44.1091ZM54.0425 43.931C54.0425 43.6764 53.8389 43.6001 53.4316 43.6001H52.9734C52.7952 43.6001 52.6424 43.5746 52.5152 43.5492C52.337 43.6764 52.2606 43.8546 52.2606 44.0073C52.2606 44.3128 52.5915 44.4909 53.1261 44.4909C53.6607 44.4909 54.0425 44.2364 54.0425 43.931ZM53.6098 41.2076C53.6098 40.7749 53.3552 40.5203 53.0243 40.5203C52.6934 40.5203 52.4388 40.7749 52.4388 41.2076C52.4388 41.6403 52.6934 41.8948 53.0243 41.8948C53.3552 41.8948 53.6098 41.6403 53.6098 41.2076Z" fill="white"/>
<path d="M55.5698 38.9938C55.5698 38.7138 55.7735 38.5356 56.0789 38.5356C56.359 38.5356 56.5881 38.7138 56.5881 38.9938C56.5881 39.2483 56.3844 39.4519 56.0789 39.4519C55.7989 39.4519 55.5698 39.2738 55.5698 38.9938ZM55.6716 40.0628H56.4862V43.4989H55.6716V40.0628Z" fill="white"/>
<path d="M57.7335 40.0622H58.3953L58.4462 40.6731H58.4717C58.7262 40.2149 59.0826 39.9858 59.439 39.9858C59.6172 39.9858 59.719 40.0113 59.8208 40.0622L59.6936 40.7494C59.5663 40.724 59.4899 40.6985 59.3372 40.6985C59.0572 40.6985 58.7262 40.8767 58.5226 41.4112V43.4983H57.708V40.0622H57.7335Z" fill="white"/>
<path d="M61.9849 41.7676C61.9849 40.6477 62.7485 39.9604 63.5631 39.9604C64.4795 39.9604 64.9886 40.6222 64.9886 41.5894C64.9886 41.7421 64.9632 41.8948 64.9632 41.9712H62.774C62.8504 42.5821 63.2322 42.9384 63.7922 42.9384C64.0977 42.9384 64.3268 42.8366 64.5813 42.6839L64.8614 43.1929C64.5304 43.422 64.1231 43.5747 63.6904 43.5747C62.7231 43.5747 61.9849 42.9129 61.9849 41.7676ZM64.3013 41.4367C64.3013 40.9022 64.0722 40.5968 63.5886 40.5968C63.1813 40.5968 62.8249 40.9022 62.774 41.4367H64.3013Z" fill="white"/>
<path d="M65.9811 40.0623H66.6429L66.6938 40.5204H66.7193C67.0248 40.215 67.3812 39.9604 67.8394 39.9604C68.5776 39.9604 68.8831 40.4695 68.8831 41.3349V43.4729H68.0685V41.4367C68.0685 40.8767 67.9157 40.6477 67.5339 40.6477C67.2284 40.6477 67.0248 40.8004 66.7448 41.0804V43.4729H65.9302V40.0623H65.9811Z" fill="white"/>
<path d="M69.7998 43.091L70.1816 42.582C70.4871 42.8111 70.7926 42.9638 71.1235 42.9638C71.5053 42.9638 71.6835 42.7856 71.6835 42.5565C71.6835 42.2766 71.3017 42.1493 70.9453 41.9966C70.4871 41.8184 69.978 41.5639 69.978 41.0039C69.978 40.4185 70.4617 39.9858 71.2253 39.9858C71.709 39.9858 72.0908 40.1895 72.3708 40.3931L72.0145 40.8767C71.7854 40.6985 71.5308 40.5712 71.2508 40.5712C70.8944 40.5712 70.7417 40.724 70.7417 40.953C70.7417 41.233 71.0981 41.3348 71.4544 41.4621C71.9126 41.6403 72.4472 41.8693 72.4472 42.5056C72.4472 43.091 71.989 43.5746 71.1235 43.5746C70.6398 43.5746 70.1307 43.371 69.7998 43.091Z" fill="white"/>
<path d="M73.1597 41.7676C73.1597 40.6477 73.9233 39.9604 74.7379 39.9604C75.6543 39.9604 76.1634 40.6222 76.1634 41.5894C76.1634 41.7421 76.138 41.8948 76.138 41.9712H73.9488C74.0252 42.5821 74.407 42.9384 74.967 42.9384C75.2725 42.9384 75.5016 42.8366 75.7562 42.6839L76.0362 43.1929C75.7052 43.422 75.298 43.5747 74.8652 43.5747C73.8979 43.5747 73.1597 42.9129 73.1597 41.7676ZM75.4507 41.4367C75.4507 40.9022 75.2216 40.5968 74.7379 40.5968C74.3306 40.5968 73.9743 40.9022 73.9233 41.4367H75.4507Z" fill="white"/>
<path d="M77.1564 40.0623H77.8182L77.8691 40.5204H77.8946C78.1746 40.215 78.5055 39.9604 78.9383 39.9604C79.4474 39.9604 79.7274 40.1895 79.8801 40.5713C80.2111 40.215 80.542 39.9604 80.9748 39.9604C81.6875 39.9604 82.0439 40.4695 82.0439 41.3349V43.4729H81.2293V41.4367C81.2293 40.8767 81.0511 40.6477 80.6947 40.6477C80.4656 40.6477 80.2365 40.7749 79.982 41.0804V43.4729H79.1674V41.4367C79.1674 40.8767 78.9892 40.6477 78.6328 40.6477C78.4292 40.6477 78.1746 40.7749 77.9201 41.0804V43.4729H77.1055V40.0623H77.1564Z" fill="white"/>
<path d="M84.0038 43.1425L83.902 43.4988H83.2656V38.561H84.0802V39.8337L84.0547 40.3936C84.3348 40.1391 84.6911 39.9609 85.0475 39.9609C85.913 39.9609 86.3967 40.6481 86.3967 41.6917C86.3967 42.8625 85.6839 43.5497 84.9203 43.5497C84.6402 43.5752 84.3093 43.4225 84.0038 43.1425ZM85.5821 41.7426C85.5821 41.0554 85.353 40.6481 84.8439 40.6481C84.5893 40.6481 84.3602 40.7754 84.1057 41.0299V42.6334C84.3348 42.8371 84.5893 42.9134 84.793 42.9134C85.2257 42.9134 85.5821 42.5062 85.5821 41.7426Z" fill="white"/>
<path d="M87.415 42.608V38.561H88.2296V42.6589C88.2296 42.8625 88.3314 42.9389 88.4078 42.9389C88.4333 42.9389 88.4842 42.9389 88.5351 42.9134L88.6369 43.5243C88.5351 43.5752 88.4078 43.6006 88.2042 43.6006C87.6187 43.5752 87.415 43.1934 87.415 42.608Z" fill="white"/>
<path d="M89.3242 41.7676C89.3242 40.6477 90.0879 39.9604 90.9025 39.9604C91.8189 39.9604 92.328 40.6222 92.328 41.5894C92.328 41.7421 92.3026 41.8948 92.3026 41.9712H90.1134C90.1897 42.5821 90.5716 42.9384 91.1316 42.9384C91.4371 42.9384 91.6662 42.8366 91.9207 42.6839L92.2007 43.1929C91.8698 43.422 91.4625 43.5747 91.0298 43.5747C90.0624 43.5747 89.3242 42.9129 89.3242 41.7676ZM91.6152 41.4367C91.6152 40.9022 91.3861 40.5968 90.9025 40.5968C90.4952 40.5968 90.1388 40.9022 90.0879 41.4367H91.6152Z" fill="white"/>
<path d="M93.8045 42.4805C93.499 42.4805 93.2699 42.6841 93.2699 42.9641C93.2699 43.2949 93.5245 43.4477 93.779 43.4477C93.8045 43.4477 93.83 43.4477 93.83 43.4477C93.83 43.804 93.5754 44.1349 93.1172 44.2876L93.2954 44.7203C93.9827 44.4912 94.39 43.9567 94.39 43.2695C94.39 42.7859 94.1863 42.4805 93.8045 42.4805Z" fill="white"/>
<path d="M97.19 40.0623H97.8519L97.9028 40.4186H97.9282C98.2082 40.1641 98.5901 39.9604 98.9719 39.9604C99.8374 39.9604 100.321 40.6477 100.321 41.7167C100.321 42.8875 99.6083 43.5747 98.8446 43.5747C98.5392 43.5747 98.2337 43.4474 97.9537 43.1929L97.9791 43.7529V44.8219H97.1646V40.0623H97.19ZM99.481 41.7421C99.481 41.0549 99.2519 40.6477 98.7428 40.6477C98.4883 40.6477 98.2592 40.7749 98.0046 41.0295V42.633C98.2592 42.8366 98.4883 42.9129 98.6919 42.9129C99.1246 42.9129 99.481 42.5057 99.481 41.7421Z" fill="white"/>
<path d="M101.339 40.0622H102.001L102.052 40.6731H102.078C102.332 40.2149 102.689 39.9858 103.045 39.9858C103.223 39.9858 103.325 40.0113 103.427 40.0622L103.3 40.7494C103.172 40.724 103.096 40.6985 102.943 40.6985C102.663 40.6985 102.332 40.8767 102.129 41.4112V43.4983H101.314V40.0622H101.339Z" fill="white"/>
<path d="M103.758 41.7676C103.758 40.6222 104.547 39.9604 105.387 39.9604C106.227 39.9604 107.016 40.6222 107.016 41.7676C107.016 42.9129 106.227 43.5747 105.387 43.5747C104.547 43.5747 103.758 42.9129 103.758 41.7676ZM106.176 41.7676C106.176 41.0804 105.871 40.6222 105.362 40.6222C104.852 40.6222 104.547 41.0804 104.547 41.7676C104.547 42.4548 104.852 42.9129 105.362 42.9129C105.871 42.9129 106.176 42.4548 106.176 41.7676Z" fill="white"/>
<path d="M108.034 42.3276V40.6987H107.551V40.0878L108.085 40.0623L108.187 39.1206H108.849V40.0623H109.715V40.6987H108.849V42.3276C108.849 42.7349 109.002 42.9385 109.333 42.9385C109.46 42.9385 109.587 42.8876 109.689 42.8621L109.816 43.4475C109.638 43.4984 109.384 43.5748 109.104 43.5748C108.34 43.5748 108.034 43.0657 108.034 42.3276Z" fill="white"/>
<path d="M110.351 41.7678C110.351 40.6479 111.114 39.9606 111.929 39.9606C112.845 39.9606 113.354 40.6224 113.354 41.5896C113.354 41.7423 113.329 41.895 113.329 41.9714H111.14C111.216 42.5822 111.598 42.9386 112.158 42.9386C112.463 42.9386 112.693 42.8368 112.947 42.6841L113.227 43.1931C112.896 43.4222 112.489 43.5749 112.056 43.5749C111.089 43.5749 110.351 42.9131 110.351 41.7678ZM112.642 41.4369C112.642 40.9024 112.413 40.597 111.929 40.597C111.522 40.597 111.165 40.9024 111.114 41.4369H112.642ZM111.496 39.0953L112.514 37.8735L113.074 38.408L111.903 39.477L111.496 39.0953Z" fill="white"/>
<path d="M114.067 44.1091C114.067 43.8292 114.246 43.5746 114.551 43.371V43.3456C114.373 43.2438 114.246 43.0401 114.246 42.7856C114.246 42.5311 114.424 42.2766 114.627 42.1493V42.1239C114.398 41.9457 114.169 41.6148 114.169 41.2076C114.169 40.4185 114.806 39.9858 115.518 39.9858C115.697 39.9858 115.875 40.0113 116.027 40.0622H117.249V40.6476H116.613C116.715 40.7749 116.817 40.9785 116.817 41.233C116.817 41.9966 116.231 42.4038 115.518 42.4038C115.366 42.4038 115.213 42.3784 115.06 42.302C114.958 42.3784 114.882 42.4802 114.882 42.6329C114.882 42.8365 115.009 42.9383 115.442 42.9383H116.053C116.868 42.9383 117.3 43.1929 117.3 43.7783C117.3 44.4655 116.588 45 115.467 45C114.678 45 114.067 44.72 114.067 44.1091ZM116.562 43.931C116.562 43.6764 116.358 43.6001 115.951 43.6001H115.493C115.315 43.6001 115.162 43.5746 115.035 43.5492C114.857 43.6764 114.78 43.8546 114.78 44.0073C114.78 44.3128 115.111 44.4909 115.646 44.4909C116.18 44.4909 116.562 44.2364 116.562 43.931ZM116.129 41.2076C116.129 40.7749 115.875 40.5203 115.544 40.5203C115.213 40.5203 114.958 40.7749 114.958 41.2076C114.958 41.6403 115.213 41.8948 115.544 41.8948C115.875 41.8948 116.129 41.6403 116.129 41.2076Z" fill="white"/>
<path d="M117.81 41.7676C117.81 40.6477 118.573 39.9604 119.388 39.9604C120.304 39.9604 120.813 40.6222 120.813 41.5894C120.813 41.7421 120.788 41.8948 120.788 41.9712H118.599C118.675 42.5821 119.057 42.9384 119.617 42.9384C119.922 42.9384 120.151 42.8366 120.406 42.6839L120.686 43.1929C120.355 43.422 119.948 43.5747 119.515 43.5747C118.548 43.5747 117.81 42.9129 117.81 41.7676ZM120.101 41.4367C120.101 40.9022 119.871 40.5968 119.388 40.5968C118.981 40.5968 118.624 40.9022 118.573 41.4367H120.101Z" fill="white"/>
<path d="M121.806 40.0622H122.468L122.518 40.6731H122.544C122.799 40.2149 123.155 39.9858 123.511 39.9858C123.689 39.9858 123.791 40.0113 123.893 40.0622L123.766 40.7494C123.639 40.724 123.562 40.6985 123.409 40.6985C123.129 40.6985 122.799 40.8767 122.595 41.4112V43.4983H121.78V40.0622H121.806Z" fill="white"/>
<path d="M126.057 41.7676C126.057 40.6222 126.872 39.9604 127.788 39.9604C128.221 39.9604 128.552 40.1386 128.781 40.3422L128.399 40.8767C128.221 40.724 128.043 40.6222 127.839 40.6222C127.279 40.6222 126.897 41.0804 126.897 41.7676C126.897 42.4548 127.279 42.9129 127.814 42.9129C128.094 42.9129 128.323 42.7857 128.526 42.6075L128.857 43.142C128.526 43.422 128.119 43.5747 127.737 43.5747C126.77 43.5747 126.057 42.9129 126.057 41.7676Z" fill="white"/>
<path d="M129.723 38.561H130.537V39.8337L130.512 40.4954C130.792 40.2154 131.148 39.9864 131.606 39.9864C132.345 39.9864 132.65 40.4954 132.65 41.3608V43.4988H131.836V41.4626C131.836 40.9027 131.683 40.6736 131.301 40.6736C130.996 40.6736 130.792 40.8263 130.512 41.1063V43.4988H129.697V38.561H129.723Z" fill="white"/>
<path d="M133.617 42.5567C133.617 41.8185 134.228 41.4368 135.628 41.284C135.628 40.9277 135.475 40.5968 135.017 40.5968C134.686 40.5968 134.355 40.7495 134.05 40.9277L133.744 40.3932C134.126 40.1641 134.61 39.9351 135.145 39.9351C136.01 39.9351 136.417 40.4696 136.417 41.4113V43.4475H135.781L135.73 43.0657H135.705C135.399 43.3202 135.043 43.5239 134.635 43.5239C134.024 43.5748 133.617 43.1675 133.617 42.5567ZM135.628 42.5821V41.8185C134.686 41.9458 134.381 42.1749 134.381 42.5312C134.381 42.8366 134.585 42.9639 134.865 42.9639C135.17 42.9384 135.374 42.8112 135.628 42.5821Z" fill="white"/>
<path d="M137.385 41.7676C137.385 40.6222 138.199 39.9604 139.116 39.9604C139.549 39.9604 139.879 40.1386 140.109 40.3422L139.727 40.8767C139.549 40.724 139.37 40.6222 139.167 40.6222C138.607 40.6222 138.225 41.0804 138.225 41.7676C138.225 42.4548 138.607 42.9129 139.141 42.9129C139.421 42.9129 139.65 42.7857 139.854 42.6075L140.185 43.142C139.854 43.422 139.447 43.5747 139.065 43.5747C138.098 43.5747 137.385 42.9129 137.385 41.7676Z" fill="white"/>
<path d="M141 42.2005V40.0625H141.814V42.0987C141.814 42.6587 141.967 42.8877 142.349 42.8877C142.654 42.8877 142.858 42.7605 143.112 42.4041V40.0625H143.927V43.4986H143.265L143.214 42.9895H143.163C142.858 43.3459 142.527 43.5749 142.069 43.5749C141.33 43.5749 141 43.0659 141 42.2005Z" fill="white"/>
<path d="M145.098 40.0623H145.76L145.811 40.5204H145.836C146.142 40.215 146.498 39.9604 146.956 39.9604C147.695 39.9604 148 40.4695 148 41.3349V43.4729H147.236V41.4367C147.236 40.8767 147.084 40.6477 146.702 40.6477C146.396 40.6477 146.193 40.8004 145.913 41.0804V43.4729H145.098V40.0623V40.0623Z" fill="white"/>
<path d="M70.4111 31.6634V21.4824H73.084V31.7652C73.084 32.3506 73.3385 32.5288 73.5677 32.5288C73.6695 32.5288 73.7458 32.5288 73.8986 32.5033L74.2295 34.5141C73.924 34.6414 73.4913 34.7432 72.8803 34.7432C71.0475 34.7686 70.4111 33.5214 70.4111 31.6634Z" fill="white"/>
<path d="M53.2538 28.4052C53.4829 27.6671 55.8758 22.3984 55.8758 22.3984H58.7014V34.5393H56.1558V27.0308L54.0429 32.4776H52.4138L50.301 27.0308V34.5393H47.7554V22.3984H50.581C50.581 22.3984 52.9484 27.6671 53.2029 28.4052H53.2538V28.4052Z" fill="white"/>
<path d="M75.3242 31.9689C75.3242 30.0345 76.9534 28.9401 80.5427 28.5583C80.4917 27.7438 79.9826 27.2602 78.9899 27.2602C78.2262 27.2602 77.4625 27.5911 76.597 28.1001L75.6551 26.293C76.8007 25.5803 78.0989 25.0713 79.5244 25.0713C81.8409 25.0713 83.1137 26.4203 83.1137 29.2455V34.5142H80.5681V33.6233C80.5681 33.6233 79.5244 34.7432 78.048 34.7432C76.3679 34.7687 75.3242 33.5215 75.3242 31.9689ZM80.5427 31.8162V30.2127C78.6335 30.4672 77.8953 31.0781 77.8953 31.7653C77.8953 32.3507 78.3026 32.6561 78.9389 32.6561C79.5244 32.6307 80.059 32.2998 80.5427 31.8162Z" fill="white"/>
<path d="M60.5596 31.9689C60.5596 30.0345 62.1887 28.9401 65.778 28.5583C65.7271 27.7438 65.218 27.2602 64.2252 27.2602C63.4615 27.2602 62.6979 27.5911 61.8324 28.1001L60.8905 26.293C62.036 25.5803 63.3343 25.0713 64.7598 25.0713C67.0763 25.0713 68.349 26.4203 68.349 29.2455V34.5142H65.8035V33.6233C65.8035 33.6233 64.7598 34.7432 63.2833 34.7432C61.6033 34.7687 60.5596 33.5215 60.5596 31.9689ZM65.778 31.8162V30.2127C63.8688 30.4672 63.1306 31.0781 63.1306 31.7653C63.1306 32.3507 63.5379 32.6561 64.1743 32.6561C64.7598 32.6307 65.2943 32.2998 65.778 31.8162Z" fill="white"/>
<path d="M90.6739 21.4824V25.9621C90.063 25.3767 89.4521 25.0712 88.4593 25.0712C86.5501 25.0712 84.7173 26.9038 84.7173 29.9072C84.7173 32.936 86.1683 34.7432 88.4084 34.7432C89.6303 34.7432 90.5976 33.8269 90.6739 33.7505V34.5395H93.3468V21.4824H90.6739ZM89.0957 32.5288C88.052 32.5288 87.4411 31.7143 87.4411 29.9072C87.4411 28.151 88.2047 27.3365 89.0702 27.3365C89.5539 27.3365 90.0885 27.4892 90.6739 27.9219V31.7143C90.1394 32.2997 89.6812 32.5288 89.0957 32.5288Z" fill="white"/>
<path d="M95.4087 22.5259C95.4087 21.686 96.0705 21.1006 96.9615 21.1006C97.8524 21.1006 98.5143 21.686 98.5143 22.5259C98.5143 23.3659 97.8524 23.9513 96.9615 23.9513C96.0705 23.9513 95.4087 23.3404 95.4087 22.5259ZM95.6123 25.3002H98.2852V34.5395H95.6123V25.3002Z" fill="white"/>
<path d="M99.9653 29.9073C99.9653 26.9039 101.849 25.0713 104.115 25.0713C106.686 25.0713 108.111 26.9802 108.111 29.5C108.111 29.9836 108.06 30.4927 108.009 30.7217H102.587C102.816 32.0707 103.733 32.6816 104.929 32.6816C105.617 32.6816 106.202 32.4016 106.864 32.0198L107.78 33.7251C106.864 34.3869 105.642 34.7687 104.573 34.7687C101.9 34.7687 99.9653 32.987 99.9653 29.9073ZM105.82 28.9146C105.82 27.8965 105.235 27.1584 104.166 27.1584C103.325 27.1584 102.74 27.7438 102.562 28.9146H105.82Z" fill="white"/>
<path d="M47.7554 16.3914V6.21045H50.4282V16.4932C50.4282 17.0787 50.6828 17.2568 50.9119 17.2568C51.0137 17.2568 51.0901 17.2568 51.2428 17.2314L51.5737 19.2421C51.2683 19.3694 50.8355 19.4712 50.2246 19.4712C48.3663 19.4712 47.7554 18.2495 47.7554 16.3914Z" fill="white"/>
<path d="M61.9595 16.3662L62.6977 19.2678H65.4724L61.7304 7.12695H58.6502L54.9082 19.2678H57.6829L58.4211 16.3662H61.9595ZM58.9811 14.2282L60.1521 9.6213H60.2539L61.4249 14.2282H58.9811Z" fill="white"/>
<path d="M66.0073 18.1986L67.2037 16.4933C68.0183 17.1296 68.782 17.4605 69.5457 17.4605C70.3348 17.4605 70.6912 17.1551 70.6912 16.6715C70.6912 16.0606 69.8002 15.7806 68.8584 15.4243C67.7383 14.9916 66.4655 14.228 66.4655 12.7009C66.4655 10.9701 67.8401 9.79932 69.9275 9.79932C71.3021 9.79932 72.3458 10.3593 73.1095 10.9701L71.9131 12.6245C71.2767 12.1409 70.6403 11.8355 70.0039 11.8355C69.3166 11.8355 68.9602 12.1155 68.9602 12.5736C68.9602 13.159 69.8002 13.3881 70.7421 13.7445C71.8876 14.1771 73.1859 14.8389 73.1859 16.5188C73.1859 18.1986 71.8876 19.4967 69.4693 19.4967C68.2983 19.4713 66.9237 18.9622 66.0073 18.1986Z" fill="white"/>
<path d="M74.0259 18.1986L75.2223 16.4933C76.0369 17.1296 76.8006 17.4605 77.5642 17.4605C78.3534 17.4605 78.7097 17.1551 78.7097 16.6715C78.7097 16.0606 77.8188 15.7806 76.8769 15.4243C75.7569 14.9916 74.4841 14.228 74.4841 12.7009C74.4841 10.9701 75.8587 9.79932 77.9461 9.79932C79.3207 9.79932 80.3644 10.3593 81.128 10.9701L79.9316 12.6245C79.2952 12.1409 78.6588 11.8355 78.0224 11.8355C77.3351 11.8355 76.9788 12.1155 76.9788 12.5736C76.9788 13.159 77.8188 13.3881 78.7607 13.7445C79.9062 14.1771 81.2044 14.8389 81.2044 16.5188C81.2044 18.1986 79.9062 19.4967 77.4879 19.4967C76.3169 19.4713 74.9423 18.9622 74.0259 18.1986Z" fill="white"/>
<path d="M92.9902 10.0284H95.6631V11.352C96.1722 10.3339 97.4195 9.97754 98.0559 9.97754C98.5651 9.97754 98.8705 10.0539 99.1251 10.1557L98.8451 12.65C98.4887 12.5482 98.0814 12.3701 97.6996 12.3701C96.6559 12.3955 95.7395 13.2864 95.6631 14.4572V19.2677H92.9902V10.0284V10.0284Z" fill="white"/>
<path d="M109.486 10.0284H112.159V11.1992C112.922 10.4611 113.686 9.79932 114.933 9.79932C116.893 9.79932 117.734 11.2247 117.734 13.5154V19.2422H115.061V13.8463C115.061 12.5227 114.704 12.09 113.941 12.09C113.279 12.09 112.77 12.4209 112.184 12.9809V19.2167H109.511V10.0284H109.486Z" fill="white"/>
<path d="M126.999 14.6353C126.999 11.6319 128.883 9.79932 131.148 9.79932C133.719 9.79932 135.145 11.7083 135.145 14.228C135.145 14.7116 135.094 15.2207 135.043 15.4498H129.621C129.85 16.7988 130.766 17.4096 131.963 17.4096C132.65 17.4096 133.236 17.1296 133.898 16.7478L134.814 18.4532C133.898 19.1149 132.676 19.4967 131.607 19.4967C128.959 19.4713 126.999 17.6896 126.999 14.6353ZM132.879 13.6426C132.879 12.6245 132.294 11.8864 131.225 11.8864C130.385 11.8864 129.799 12.4718 129.621 13.6426H132.879Z" fill="white"/>
<path d="M99.7104 16.6969C99.7104 14.7625 101.34 13.6681 104.929 13.2863C104.878 12.4718 104.369 11.9882 103.376 11.9882C102.612 11.9882 101.849 12.3191 100.983 12.8282L100.041 11.021C101.187 10.3084 102.485 9.79932 103.911 9.79932C106.227 9.79932 107.5 11.1483 107.5 13.9735V19.2422H104.954V18.3513C104.954 18.3513 103.911 19.4713 102.434 19.4713C100.754 19.4713 99.7104 18.2495 99.7104 16.6969ZM104.929 16.5442V14.9407C103.02 15.1952 102.281 15.8061 102.281 16.4933C102.281 17.0787 102.689 17.3842 103.325 17.3842C103.936 17.3587 104.471 17.0278 104.929 16.5442Z" fill="white"/>
<path d="M53.9414 6.15967C53.3814 6.15967 52.6177 6.59236 52.6177 7.35593C52.6177 8.04315 53.1523 8.45039 53.7123 8.45039C53.7377 8.45039 53.7632 8.45039 53.7886 8.45039C53.7632 9.26487 53.025 9.72301 52.6686 9.92663L53.3813 10.9193C55.7233 10.1812 56.2069 6.18512 53.9414 6.15967Z" fill="white"/>
<path d="M88.1027 10.0288V16.1374C87.5681 16.8755 87.1608 17.1555 86.499 17.1555C85.7353 17.1555 85.3789 16.7483 85.3789 15.3993V10.0288H82.7061V15.8574C82.7061 18.0463 83.6479 19.4971 85.5571 19.4971C87.2881 19.4971 88.1536 18.3263 88.1536 18.3263V19.2681H90.801V10.0288H88.1027Z" fill="white"/>
<path d="M123.945 17.2828C122.774 17.2828 121.908 16.2392 121.908 14.6612C121.908 13.0577 122.748 12.0141 124.021 12.0141C124.428 12.0141 124.785 12.1668 125.192 12.5232L126.465 10.7669C125.803 10.207 124.963 9.8252 123.868 9.8252C121.374 9.8252 119.185 11.6069 119.185 14.6612C119.185 17.7155 121.094 19.4971 123.614 19.4971C124.607 19.4971 125.727 19.1917 126.592 18.4027L125.625 16.5447C125.116 16.9773 124.556 17.2828 123.945 17.2828Z" fill="white"/>
<path d="M24.4376 6.28689C24.3867 6.18508 24.2085 6.10872 24.0812 6.08327C23.9285 6.05782 23.8521 6.05782 23.8521 6.05782C23.6739 6.00692 20.1356 6.05782 19.2955 6.61777C19.2192 6.05782 19.0155 5.3706 18.0482 5.16698C17.3609 5.01427 15.8844 5.67603 16.3681 7.15228C16.4445 7.4068 16.6227 7.58497 16.8772 7.71223C17.0045 7.78859 17.2082 7.73768 17.3609 8.14492C17.4118 8.24673 17.4882 8.24673 17.5645 8.22128C17.6154 8.19583 17.6409 8.22128 17.7173 8.27219C17.7936 8.32309 17.8445 8.29764 17.8445 8.29764C17.8445 8.29764 17.87 8.32309 17.9209 8.32309C17.9464 8.32309 18.0482 8.29764 18.0482 8.32309C18.3282 8.55216 18.6591 8.19583 18.7864 7.96676C18.9137 8.34854 19.2446 9.34119 19.2446 9.34119C19.1428 9.23938 18.0227 8.93395 17.4882 9.51936C17.03 10.0284 16.6736 10.7411 16.2917 11.9373C16.1899 12.2682 15.9863 12.4209 15.6044 12.5737C14.9935 12.8027 15.3499 13.0827 15.5026 13.1082C15.8845 13.1845 16.7499 13.1336 16.9281 13.0573C17.1572 12.9554 16.9791 12.4209 17.2336 12.0901C17.4627 11.8101 17.6409 11.5556 17.7936 11.3774C17.7936 11.7592 17.7936 11.9628 17.59 12.4464C17.4118 12.9045 16.8518 13.1336 16.6736 13.3372C16.3681 13.719 17.0554 13.7445 17.2336 13.6936C17.6918 13.5408 17.9973 13.5408 18.1755 13.439C18.43 13.2863 18.2518 12.8791 18.3282 12.7264C18.5573 12.2682 19.3464 11.2756 19.4483 11.1229C19.4737 11.0974 19.4737 11.072 19.4737 11.0465C20.0337 11.2247 20.6701 11.2756 20.8992 11.2501C22.1975 11.0974 22.4775 10.1811 22.3502 9.443C22.2229 8.78123 21.8157 8.37399 21.6884 8.17037C21.3574 7.63587 21.1538 7.3559 21.0265 7.20318C21.4084 7.10137 23.4703 6.54142 23.4703 6.56687C23.5466 6.74504 23.7248 6.77049 23.7757 6.82139C23.903 6.89775 23.9794 6.77049 23.9285 6.74504C23.8267 6.66868 23.8012 6.61777 23.8012 6.61777C23.9794 6.61777 24.1321 6.64323 24.2594 6.64323C24.4631 6.66868 24.5394 6.36325 24.4376 6.28689Z" fill="white"/>
<path fill-rule="evenodd" clip-rule="evenodd" d="M42.8421 18.7583C42.5112 16.9766 40.8565 15.8822 39.991 15.5004C39.4056 15.2459 39.151 15.195 39.0492 15.1695C38.9219 15.1186 38.8201 15.0932 38.7692 15.0677C38.8201 14.6859 39.2783 14.6605 39.5583 14.1005C40.322 12.5225 38.7437 11.428 37.5982 11.6825C37.0382 11.8098 36.6818 11.988 36.58 12.4206C36.5291 12.6497 36.3509 12.6497 36.0708 12.9552C35.969 13.057 36.1727 13.2097 36.2236 13.286C36.2236 13.3115 36.1727 13.3878 36.1472 13.4897C36.1218 13.5915 36.1472 13.566 36.1472 13.5915C36.1472 13.5915 36.0963 13.6933 36.0963 13.8205C36.0963 13.8205 35.969 14.0751 36.0963 14.355C36.1218 14.4314 36.2745 14.5841 36.3254 14.9404C36.3254 14.9914 36.3254 15.0168 36.1218 14.9404C36.0708 14.915 33.958 14.3041 33.7289 14.1514C33.4744 13.9732 31.387 11.708 31.1579 11.2753C31.0306 11.0208 30.9033 10.868 30.827 10.868C30.3433 10.8935 31.1833 11.7843 30.6997 11.4789C30.5724 11.4025 30.216 11.148 30.1906 11.1226C30.0887 11.0462 30.1142 11.0717 30.0633 10.9699C30.0124 10.868 29.9615 10.7917 29.9105 10.7662C29.8596 10.7408 29.8342 10.7153 29.7833 10.7153C29.7069 10.7408 29.7324 10.7917 29.7069 10.7917C29.7069 10.7917 29.656 10.7917 29.6305 10.7917C29.5033 10.8171 29.6051 11.1226 29.6305 11.2753C29.6305 11.3007 29.9615 12.0898 30.0633 12.217C30.5979 12.5734 31.107 12.9042 31.1324 12.9042C31.7179 13.566 32.3798 14.4059 32.9907 15.0423C33.4744 15.5513 35.6636 16.8239 35.7145 16.8494C35.8672 16.9257 36.0963 17.4093 35.7654 20.7436C35.6381 21.9908 34.7471 24.6633 35.1799 26.0377C35.4599 26.9286 35.7654 27.5394 36.0963 29.9829C36.1727 30.5174 35.7399 30.8737 35.129 31.3064C34.8999 31.4846 34.2126 31.8918 34.1617 31.9427C34.0598 32.0445 34.1617 32.1972 34.2889 32.2736C34.4417 32.3245 34.6962 32.4772 34.849 32.5027C35.1035 32.5536 35.4854 32.5281 35.8927 32.299C36.3254 32.0445 36.3763 32.0191 36.6309 31.8409C36.9363 31.6627 37.2927 31.6118 37.3945 31.3064C37.5218 30.8992 37.1654 30.3137 37.2164 30.0592C37.4709 28.1503 37.8018 27.2085 37.3182 26.0377C37.2164 25.8087 38.0055 23.2634 38.0819 23.5943C38.2091 24.2561 38.26 26.2668 38.2855 27.743C38.2855 28.4048 38.8201 30.6955 38.9983 31.5355C39.2528 32.8081 37.1145 33.8262 37.5727 34.208C37.6746 34.2843 37.9546 34.4116 38.2091 34.4625C38.5146 34.5134 38.7437 34.4625 38.9983 34.3607C39.151 34.3098 39.3801 34.0298 39.431 33.9789C39.8892 33.4189 39.7365 33.5717 40.1183 33.1644C40.4238 32.8081 40.1947 32.1972 40.1692 31.8918C40.0929 31.2555 40.1692 31.0773 40.1438 29.9065C40.1438 28.5575 40.2201 28.1757 40.2965 27.6667C40.6274 25.4269 40.8311 24.2051 40.9584 23.2634V23.2125C40.9584 23.2125 41.1111 23.2634 41.1875 23.1616C41.3147 22.958 41.2893 22.7798 41.3147 22.6525C41.3402 22.5253 41.3911 22.678 41.3911 22.678C41.3911 22.678 41.4929 22.9834 41.4929 23.0852C41.4929 23.238 41.3911 23.4161 41.3147 23.6452C41.2384 23.8997 41.442 23.9252 41.4929 23.9506C41.5438 23.9761 42.2057 23.4925 42.3075 23.3143C42.4093 23.1107 42.3839 22.8562 42.4093 22.7289C42.4348 22.398 42.2312 21.4563 42.2312 21.4563C42.3839 20.82 42.9439 19.2165 42.8421 18.7583ZM41.3147 21.329C41.2384 21.6344 41.2129 21.3545 40.9329 22.5253L40.9584 22.3471C40.9584 22.1944 40.9584 22.0162 40.9584 21.8381C40.9584 20.3873 39.8383 17.2821 40.5256 17.9184C40.5256 17.9184 41.3402 18.4783 41.4929 18.911C41.6202 19.2928 41.5948 20.2091 41.3147 21.329Z" fill="white"/>
<path d="M14.1026 24.8164C13.848 24.5873 12.9571 23.391 12.397 22.9074C12.0152 22.5002 11.9134 22.2966 11.6079 21.8639C10.5642 20.4894 10.3351 20.3876 9.62234 20.2858C9.46961 20.184 9.52052 20.0822 9.54598 20.0567C10.4878 19.7004 10.1824 18.8859 10.1569 18.8605C10.106 18.6823 10.2333 18.6059 10.2333 18.4278C10.2333 18.1478 10.1824 17.9442 10.106 17.7406C10.1315 17.6133 10.1569 17.4351 10.0296 17.257C9.52052 16.6207 8.24773 16.5952 7.58588 17.0279C7.05131 17.3842 7.35678 17.6388 7.20404 18.1733C7.10222 18.4787 7.20404 18.7587 7.40769 18.9877C7.43314 19.1659 7.96772 19.4968 7.86589 19.8531C7.76407 20.2349 7.15313 20.3113 7.15313 20.3113C7.07676 20.3367 7.02585 20.3622 6.97494 20.3876C6.00762 20.9476 5.06576 21.7621 4.93848 22.6274C4.98939 23.3401 6.10944 24.3837 6.82221 24.9436C6.92403 26.1653 7.6877 28.0234 7.73861 28.0997C7.84044 28.3288 7.50951 27.9216 6.74584 27.667C6.364 27.5398 5.88034 27.0307 5.75306 27.6416C5.70215 27.8961 5.80397 28.3288 5.57487 28.8888C5.39668 29.296 5.60033 29.9578 6.05853 29.9578C6.38946 29.9578 6.5931 28.9397 6.5931 28.9397C6.5931 28.9397 8.19682 29.7287 8.96049 29.4742C9.4187 29.3214 9.52052 27.5398 9.06232 25.9363C8.90958 25.3763 9.34233 26.8526 10.4115 28.1252C10.6406 28.4052 10.4369 28.6342 10.5897 29.7032C10.6406 30.1105 10.6406 30.2123 10.6406 30.3904C10.6151 30.8995 10.1315 31.5104 11.2515 31.7903C12.397 32.0958 12.2952 32.3503 13.008 31.8667C13.3389 31.6631 12.0152 31.5104 11.7606 30.7468C11.7606 30.7213 11.7352 30.6195 11.7352 30.5686C11.7097 29.9578 11.9897 28.5579 11.8879 28.0488C11.4806 25.6308 10.4624 24.5109 10.3351 23.951C10.3351 22.2711 10.2078 21.7366 10.3606 22.1184C10.386 22.1947 10.7424 22.7802 11.0988 23.2383C11.1242 23.2892 11.1751 23.3401 11.2261 23.391C11.3279 23.5183 11.4297 23.6201 11.5315 23.671C12.2443 24.2819 13.3643 25.02 13.5171 25.1727C13.5171 25.1727 13.5934 25.9108 13.8989 25.8599C14.1789 25.809 15.5281 25.2236 15.5026 25.0709C15.4517 24.8673 14.128 24.8673 14.1026 24.8164ZM6.77129 23.9001C6.56765 23.5183 6.00762 22.7802 6.05853 22.6529C6.364 22.1438 6.69493 21.9911 6.79675 22.0166C6.87312 22.042 6.77129 23.9001 6.77129 23.9001Z" fill="white"/>
<path d="M36.4018 38.5098C36.3509 38.4844 35.5618 38.1789 34.849 37.059C34.5436 36.55 32.1762 32.1976 31.8707 31.3577C31.2343 29.6778 26.2704 26.649 26.0668 26.4708C25.9141 26.3435 25.9395 26.0636 25.9904 25.8599C26.3977 24.4346 26.245 23.1874 26.3214 22.9838C26.525 22.5002 26.8305 21.813 26.6014 21.3548L26.0922 20.5404C26.0922 20.5404 28.7142 21.4821 29.3251 21.3548C29.8597 21.253 32.4817 19.4205 32.6344 19.3441C32.9908 19.1659 33.8817 19.4205 34.7727 18.4533C35.1036 18.0969 34.8745 17.9697 34.7981 18.0206C34.8236 17.9951 34.6454 17.8424 34.4927 17.9442C34.289 18.0715 33.5508 18.2751 33.6781 18.1733C34.2126 17.766 33.8308 17.6642 33.8308 17.6642C33.6017 17.8679 32.558 18.1224 32.3289 18.3005C32.0998 18.5042 31.9216 18.6569 31.8198 18.7332C31.1834 19.0896 30.0888 19.6241 28.9942 19.8786C28.7651 19.9295 26.6777 18.5551 25.4559 18.3769C24.794 18.2751 24.5649 18.326 24.2085 18.4278C23.7758 18.5551 23.8012 17.9188 24.1321 17.766C24.3103 17.6897 24.5904 17.6388 24.6922 17.4352C24.8195 17.1806 24.6667 16.9516 24.6667 16.9007C24.6667 16.8752 24.6922 16.8498 24.6413 16.7479C24.6158 16.6716 24.6158 16.7225 24.6158 16.6461C24.6158 16.5952 24.5904 16.5443 24.5649 16.4934C24.5649 16.468 24.5649 16.3662 24.5904 16.3407C24.8449 16.1371 24.7431 16.0353 24.6922 16.0098C24.6158 15.9335 24.234 15.7807 24.2085 15.5262C24.1576 15.119 24.0049 14.9154 23.954 14.7117C23.9285 14.6354 23.8776 14.1518 23.6739 13.9736C23.4194 13.7445 22.8848 13.4646 21.7138 13.77C21.332 13.8718 21.4084 14.05 20.492 14.2281C19.3719 14.4318 18.761 16.0862 18.8628 16.7734C18.9392 17.3333 19.4228 17.0534 19.3974 17.3079C19.3719 17.6897 19.321 18.326 20.1356 18.5551C20.3138 18.606 21.3829 18.4278 21.7902 18.5042C21.7902 18.5042 22.1211 18.5296 21.943 18.8605C21.8666 19.0132 20.7974 19.4459 20.5174 19.5477C19.8301 19.8277 18.0228 22.7802 17.4882 23.0602C17.03 23.2892 16.75 23.4674 16.5718 23.5947C15.8336 24.0528 15.1208 24.6382 14.7135 24.6128C14.1789 24.5873 13.7462 24.8418 13.3898 25.6309C13.288 25.8599 13.3389 25.9872 13.5425 26.0381C13.6189 26.1145 13.7207 26.2163 13.8735 26.2163C14.0262 26.369 14.2044 26.2672 14.3571 26.1908C14.7644 25.9617 14.8662 25.7836 15.019 25.7327C15.4263 25.6054 17.8191 24.6637 18.3537 24.2564C19.1683 23.8237 20.7974 22.1439 21.1538 22.1184C21.4847 22.093 22.2993 22.8311 22.0448 24.2564C21.9684 24.74 21.3575 25.6054 21.0265 26.1145C20.3647 27.1071 20.8738 27.9979 20.7465 28.2016C20.0592 29.3215 19.2192 30.8232 17.7937 32.0958C17.2336 32.4521 16.0881 32.5285 15.4517 32.7067C14.0262 33.1139 12.5243 34.132 11.4552 34.7428C11.0988 34.9465 10.7679 34.5138 10.3097 34.4629C9.8769 34.412 9.82599 35.0992 9.59689 35.71C9.52052 35.8882 9.49507 35.99 9.16414 36.7536C9.03686 37.059 8.68048 37.9499 9.03686 38.3316C9.36779 38.7898 10.1315 37.3645 10.7424 36.6772C11.0479 36.3209 11.2515 36.1936 11.9388 36.0409C12.3716 35.9391 15.859 34.9974 18.15 34.4883C18.2009 34.4883 18.2773 34.4629 18.3282 34.4374C21.3066 33.6738 24.3867 29.7796 24.4376 29.8051L29.5033 32.2994C30.0124 32.5794 30.0124 33.5466 30.6234 34.6919C30.9798 35.3792 31.5143 35.9646 33.6781 38.0771C33.9581 38.3571 33.729 38.7898 33.8563 39.2225C33.9835 39.6806 34.2126 39.6806 34.6199 39.6552C35.0018 39.6297 35.3327 39.5534 35.7145 39.5279C36.1982 39.5025 36.0709 39.5534 36.6309 39.6297C36.911 39.6806 37.5219 39.757 37.9801 39.3243C38.7692 38.4844 37.1655 38.8916 36.4018 38.5098Z" fill="white"/>
<path d="M30.9289 36.3208C30.8525 36.1681 30.6743 36.1172 30.5216 36.1935C28.3578 37.288 25.9395 37.8734 23.4958 37.8734C20.772 37.8734 18.0991 37.1607 15.7572 35.8118C15.6045 35.7354 15.4263 35.7863 15.3245 35.9136C15.2481 36.0663 15.299 36.2444 15.4263 36.3463C17.87 37.7461 20.6447 38.4843 23.4703 38.4843C26.0159 38.4843 28.536 37.8734 30.7761 36.728C30.9543 36.6517 31.0052 36.4735 30.9289 36.3208Z" fill="white"/>
<path d="M9.06241 16.0859C9.0115 16.0859 8.98605 16.0859 8.93514 16.0604C8.7824 15.9841 8.70603 15.8059 8.7824 15.6532C10.1825 12.5989 12.448 10.0791 15.35 8.37377C15.5027 8.29741 15.6809 8.34831 15.7827 8.47558C15.8591 8.62829 15.8082 8.80646 15.6809 8.90827C12.8808 10.5372 10.6916 12.9552 9.36788 15.9077C9.29152 16.035 9.18969 16.0859 9.06241 16.0859Z" fill="white"/>
<path d="M35.3584 12.141C35.282 12.141 35.1802 12.1156 35.1293 12.0392C32.6855 9.26489 29.3254 7.45776 25.6852 6.94871C25.507 6.92326 25.4052 6.77055 25.4306 6.59238C25.4561 6.41421 25.6088 6.3124 25.787 6.33785C29.5799 6.87236 33.0674 8.75584 35.6129 11.632C35.7148 11.7592 35.7148 11.9629 35.5875 12.0647C35.5111 12.1156 35.4348 12.141 35.3584 12.141Z" fill="white"/>
<path d="M2.31637 22.6781L2.0109 22.3981C2.13818 22.2454 2.24001 22.0672 2.26546 21.8891C2.26546 21.6854 2.1891 21.5836 2.08727 21.5836C1.95999 21.5836 1.90908 21.6854 1.83271 21.8891L1.70544 22.169C1.60361 22.3727 1.42542 22.5763 1.11995 22.5763C0.763571 22.5508 0.509012 22.2454 0.534468 21.7873C0.534468 21.5327 0.661748 21.3037 0.839938 21.1255L1.11995 21.38C1.01813 21.5073 0.941762 21.6345 0.941762 21.8127C0.941762 21.9654 0.992673 22.0927 1.11995 22.0927C1.24723 22.0927 1.29814 21.9654 1.37451 21.7873L1.50179 21.5327C1.62907 21.2782 1.80726 21.1255 2.08727 21.1509C2.44365 21.1764 2.72367 21.4818 2.69821 21.9909C2.6473 22.169 2.52002 22.4745 2.31637 22.6781Z" fill="white"/>
<path d="M0.356382 19.649L0 19.0382L0.330926 18.8345L0.636395 19.4708L0.356382 19.649ZM0.61094 20.1326L0.814587 18.8091L1.22188 18.86L1.0946 19.6999L1.52735 19.7508L1.62917 19.0382L2.03646 19.0891L1.93464 19.8017L2.4183 19.8781L2.54558 19.0127L2.95287 19.0636L2.74923 20.4126L0.61094 20.1326Z" fill="white"/>
<path d="M1.96021 18.2749C1.2729 18.0967 0.992884 17.5622 1.12016 17.0277C1.19653 16.7732 1.37472 16.5696 1.55291 16.4678L1.78201 16.7987C1.65473 16.875 1.55291 16.9768 1.52746 17.1295C1.45109 17.4095 1.65473 17.6895 2.06203 17.7913C2.49478 17.8931 2.77479 17.7658 2.85116 17.4604C2.90207 17.2823 2.85116 17.1295 2.74933 17.0023L3.10572 16.8241C3.25845 17.0532 3.30936 17.3077 3.233 17.5622C3.13117 18.1222 2.64751 18.4531 1.96021 18.2749Z" fill="white"/>
<path d="M2.62188 16.0605L1.55273 15.6533L1.73093 15.1952L2.85098 15.6279C3.23282 15.7806 3.41101 15.7042 3.51283 15.4751C3.5892 15.2461 3.51283 15.0679 3.131 14.9152L2.01094 14.4825L2.16367 14.0498L3.23282 14.457C3.89467 14.7116 4.07286 15.0934 3.89467 15.6024C3.69102 16.1369 3.28373 16.2896 2.62188 16.0605Z" fill="white"/>
<path d="M2.59668 13.0569L2.95306 12.3697C3.15671 11.9625 3.46218 11.7079 3.92038 11.937C4.35313 12.1661 4.37859 12.5733 4.14948 12.9806L4.0222 13.2351L4.70951 13.5914L4.48041 14.0241L2.59668 13.0569ZM3.7931 12.8533C3.92038 12.6242 3.86947 12.4715 3.69128 12.3697C3.51309 12.2679 3.38581 12.3697 3.25853 12.5733L3.15671 12.8024L3.66582 13.0824L3.7931 12.8533ZM3.99675 13.0315L3.86947 12.5988L5.24408 12.5479L4.98952 13.0315H3.99675Z" fill="white"/>
<path d="M3.81836 10.7661L4.07292 10.3589L5.85482 11.5042L5.60027 11.9115L3.81836 10.7661Z" fill="white"/>
<path d="M5.16778 9.49387L4.81139 9.95202L4.48047 9.69749L5.47325 8.39941L5.80417 8.65394L5.44779 9.11208L6.8224 10.1556L6.54239 10.5374L5.16778 9.49387Z" fill="white"/>
<path d="M6.00732 7.76329L6.92373 6.79609L7.2292 7.07607L6.64372 7.68693L6.94919 7.96691L7.43285 7.4324L7.73832 7.71238L7.25466 8.24688L7.61104 8.57777L8.22198 7.94145L8.52745 8.22143L7.61104 9.21408L6.00732 7.76329ZM6.05824 7.22878L6.10915 6.51611L6.51644 6.54157L6.38916 7.22878H6.05824Z" fill="white"/>
<path d="M9.57119 6.8213L9.59665 6.38861C9.80029 6.38861 10.0039 6.36316 10.1312 6.23589C10.284 6.10863 10.3094 5.98137 10.233 5.87956C10.1567 5.77775 10.0294 5.8032 9.82575 5.87956L9.54574 5.95592C9.31663 6.03228 9.03662 6.00682 8.85843 5.7523C8.65478 5.47232 8.73115 5.06508 9.06207 4.7851C9.26572 4.63239 9.52028 4.55603 9.77484 4.58148V4.96327C9.59665 4.96327 9.46937 4.98872 9.31663 5.09053C9.18935 5.19234 9.13844 5.31961 9.21481 5.39596C9.29118 5.49777 9.44391 5.44687 9.6221 5.39596L9.90212 5.31961C10.1821 5.24325 10.4112 5.2687 10.5894 5.52323C10.7931 5.8032 10.7676 6.21044 10.3603 6.54133C10.1567 6.74495 9.8512 6.84675 9.57119 6.8213Z" fill="white"/>
<path d="M10.8698 4.78506C10.5135 4.19966 10.6407 3.6397 11.1244 3.35973C11.6081 3.0543 12.1426 3.20701 12.499 3.79242C12.8554 4.37782 12.7281 4.93778 12.2445 5.24321C11.7862 5.52319 11.2262 5.37047 10.8698 4.78506ZM12.1172 4.04694C11.8881 3.69061 11.6081 3.56334 11.3535 3.71606C11.0989 3.86877 11.0735 4.1742 11.3026 4.53054C11.5317 4.88687 11.8117 5.03959 12.0663 4.88687C12.2954 4.73416 12.3208 4.40328 12.1172 4.04694Z" fill="white"/>
<path d="M13.1351 3.4612C12.8296 2.82489 13.0842 2.26493 13.5678 2.03586C13.8224 1.9086 14.077 1.93405 14.2551 2.01041L14.1533 2.3922C14.026 2.34129 13.8733 2.34129 13.746 2.3922C13.4915 2.51946 13.3897 2.85034 13.5678 3.23213C13.746 3.63937 14.0515 3.76663 14.3315 3.63937C14.4842 3.56301 14.5861 3.43575 14.6115 3.28303L14.9679 3.4612C14.8915 3.71572 14.7388 3.91935 14.4843 4.02116C14.0006 4.25023 13.4406 4.09751 13.1351 3.4612Z" fill="white"/>
<path d="M15.019 1.47644L15.4772 1.32373L16.2155 3.30902L15.7573 3.46174L15.019 1.47644Z" fill="white"/>
<path d="M16.9279 0.840215L17.4879 0.6875L18.6843 2.57098L18.2007 2.69824L17.6661 1.73105C17.5643 1.55288 17.437 1.32381 17.3352 1.12019C17.3352 1.34926 17.3606 1.60379 17.3606 1.83286V2.95277L16.877 3.08003L16.9279 0.840215ZM17.0297 2.08739L18.0225 1.83286L18.1243 2.18919L17.1315 2.44372L17.0297 2.08739Z" fill="white"/>
<path d="M18.9136 0.356143L19.3972 0.279785L19.6518 1.9851L20.4664 1.85784L20.5173 2.26508L19.219 2.4687L18.9136 0.356143Z" fill="white"/>
<path d="M20.9756 0.0763582L22.2993 0L22.3247 0.407239L21.4847 0.458145L21.5102 0.890837L22.2229 0.839933L22.2484 1.24717L21.5356 1.29808L21.5611 1.78167L22.452 1.73077L22.4775 2.13801L21.1283 2.21437L20.9756 0.0763582Z" fill="white"/>
</svg>
