<svg width="336" height="64" viewBox="0 0 336 64" fill="none" xmlns="http://www.w3.org/2000/svg">
<path d="M69.1765 55.3486H70.5159L72.6154 61.8283H71.3847L70.4073 58.3894C70.1901 57.7016 70.0091 56.9776 69.8281 56.2536H69.7919C69.6109 56.9776 69.4299 57.7016 69.2127 58.3894L68.1991 61.8283H67.0408L69.1765 55.3486ZM68.3077 59.1857H71.3485V60.0907H68.3077V59.1857Z" fill="#0C419A"/>
<path d="M73.3032 62.7329C73.3032 62.3347 73.5566 61.9727 73.991 61.6831V61.6469C73.7376 61.5021 73.5566 61.2125 73.5566 60.8506C73.5566 60.4886 73.81 60.1266 74.0996 59.9456V59.9094C73.7738 59.656 73.448 59.1854 73.448 58.6062C73.448 57.484 74.353 56.8687 75.3666 56.8687C75.62 56.8687 75.8734 56.9049 76.0905 56.9773H77.8281V57.8098H76.9231C77.0679 57.9908 77.2127 58.2804 77.2127 58.6424C77.2127 59.7284 76.3801 60.3076 75.3666 60.3076C75.1494 60.3076 74.9322 60.2714 74.715 60.1628C74.5702 60.2714 74.4616 60.4162 74.4616 60.6334C74.4616 60.923 74.6426 61.0677 75.258 61.0677H76.1267C77.2851 61.0677 77.9005 61.4297 77.9005 62.2623C77.9005 63.2397 76.8869 63.9999 75.2942 63.9999C74.172 63.9999 73.3032 63.6017 73.3032 62.7329ZM76.8507 62.4795C76.8507 62.1175 76.5611 62.0089 75.982 62.0089H75.3304C75.077 62.0089 74.8598 61.9727 74.6788 61.9365C74.4254 62.1175 74.3168 62.3709 74.3168 62.5881C74.3168 63.0225 74.7874 63.2759 75.5476 63.2759C76.3077 63.2759 76.8507 62.9139 76.8507 62.4795ZM76.2354 58.6062C76.2354 57.9908 75.8734 57.6288 75.4028 57.6288C74.9322 57.6288 74.5702 57.9908 74.5702 58.6062C74.5702 59.2216 74.9322 59.5836 75.4028 59.5836C75.8734 59.5836 76.2354 59.2216 76.2354 58.6062Z" fill="#0C419A"/>
<path d="M79.0227 55.4572C79.0227 55.0591 79.3123 54.8057 79.7467 54.8057C80.1449 54.8057 80.4707 55.0591 80.4707 55.4572C80.4707 55.8192 80.1811 56.1088 79.7467 56.1088C79.3485 56.1088 79.0227 55.8554 79.0227 55.4572ZM79.1675 56.9776H80.3259V61.8645H79.1675V56.9776Z" fill="#0C419A"/>
<path d="M82.0994 56.9773H83.0406L83.113 57.846H83.1492C83.5112 57.1944 84.018 56.8687 84.5248 56.8687C84.7782 56.8687 84.923 56.9049 85.0678 56.9773L84.8868 57.9546C84.7058 57.9184 84.5972 57.8822 84.38 57.8822C83.9818 57.8822 83.5112 58.1356 83.2216 58.8958V61.8641H82.0632V56.9773H82.0994Z" fill="#0C419A"/>
<path d="M88.1448 59.4027C88.1448 57.8099 89.2307 56.8325 90.3891 56.8325C91.6923 56.8325 92.4163 57.7737 92.4163 59.1493C92.4163 59.3665 92.3801 59.5836 92.3801 59.6922H89.2669C89.3755 60.561 89.9185 61.0678 90.7149 61.0678C91.1493 61.0678 91.4751 60.923 91.8371 60.7058L92.2353 61.4298C91.7647 61.7556 91.1855 61.9728 90.5701 61.9728C89.1945 61.9728 88.1448 61.0316 88.1448 59.4027ZM91.4389 58.9321C91.4389 58.1719 91.1131 57.7375 90.4253 57.7375C89.8461 57.7375 89.3393 58.1719 89.2669 58.9321H91.4389Z" fill="#0C419A"/>
<path d="M93.828 56.9773H94.7692L94.8416 57.6289H94.8778C95.3122 57.1945 95.819 56.8325 96.4705 56.8325C97.5203 56.8325 97.9547 57.5565 97.9547 58.7873V61.828H96.7963V58.9321C96.7963 58.1357 96.5791 57.8099 96.0362 57.8099C95.6018 57.8099 95.3122 58.0271 94.914 58.4253V61.828H93.7556V56.9773H93.828Z" fill="#0C419A"/>
<path d="M99.2578 61.2849L99.8008 60.561C100.235 60.8868 100.67 61.1039 101.14 61.1039C101.683 61.1039 101.937 60.8506 101.937 60.5248C101.937 60.1266 101.394 59.9456 100.887 59.7284C100.235 59.475 99.5112 59.113 99.5112 58.3166C99.5112 57.484 100.199 56.8687 101.285 56.8687C101.973 56.8687 102.516 57.1582 102.914 57.4478L102.407 58.1356C102.081 57.8822 101.719 57.7012 101.321 57.7012C100.814 57.7012 100.597 57.9184 100.597 58.2442C100.597 58.6424 101.104 58.7872 101.611 58.9682C102.262 59.2216 103.023 59.5474 103.023 60.4524C103.023 61.2849 102.371 61.9727 101.14 61.9727C100.452 61.9727 99.7284 61.6831 99.2578 61.2849Z" fill="#0C419A"/>
<path d="M104.036 59.4027C104.036 57.8099 105.122 56.8325 106.28 56.8325C107.584 56.8325 108.308 57.7737 108.308 59.1493C108.308 59.3665 108.271 59.5836 108.271 59.6922H105.158C105.267 60.561 105.81 61.0678 106.606 61.0678C107.041 61.0678 107.366 60.923 107.728 60.7058L108.127 61.4298C107.656 61.7556 107.077 61.9728 106.461 61.9728C105.086 61.9728 104.036 61.0316 104.036 59.4027ZM107.294 58.9321C107.294 58.1719 106.968 57.7375 106.28 57.7375C105.701 57.7375 105.195 58.1719 105.122 58.9321H107.294Z" fill="#0C419A"/>
<path d="M109.719 56.9773H110.661L110.733 57.6289H110.769C111.167 57.1945 111.638 56.8325 112.253 56.8325C112.977 56.8325 113.375 57.1583 113.593 57.7013C114.063 57.1945 114.534 56.8325 115.149 56.8325C116.163 56.8325 116.67 57.5565 116.67 58.7873V61.828H115.511V58.9321C115.511 58.1357 115.258 57.8099 114.751 57.8099C114.425 57.8099 114.099 57.9909 113.737 58.4253V61.828H112.579V58.9321C112.579 58.1357 112.326 57.8099 111.819 57.8099C111.529 57.8099 111.167 57.9909 110.805 58.4253V61.828H109.647V56.9773H109.719Z" fill="#0C419A"/>
<path d="M119.457 61.3576L119.312 61.8644H118.407V54.8418H119.566V56.6518L119.529 57.4481C119.928 57.0861 120.434 56.8327 120.941 56.8327C122.172 56.8327 122.86 57.8101 122.86 59.2943C122.86 60.9594 121.846 61.9368 120.76 61.9368C120.362 61.973 119.891 61.7558 119.457 61.3576ZM121.701 59.3667C121.701 58.3893 121.376 57.8101 120.652 57.8101C120.29 57.8101 119.964 57.9911 119.602 58.3531V60.6337C119.928 60.9232 120.29 61.0318 120.579 61.0318C121.195 61.0318 121.701 60.4527 121.701 59.3667Z" fill="#0C419A"/>
<path d="M124.308 60.5975V54.8418H125.466V60.6698C125.466 60.9594 125.611 61.068 125.719 61.068C125.756 61.068 125.828 61.068 125.9 61.0318L126.045 61.9006C125.9 61.973 125.719 62.0092 125.43 62.0092C124.597 61.973 124.308 61.43 124.308 60.5975Z" fill="#0C419A"/>
<path d="M127.023 59.4027C127.023 57.8099 128.109 56.8325 129.267 56.8325C130.57 56.8325 131.294 57.7737 131.294 59.1493C131.294 59.3665 131.258 59.5836 131.258 59.6922H128.145C128.253 60.561 128.796 61.0678 129.593 61.0678C130.027 61.0678 130.353 60.923 130.715 60.7058L131.113 61.4298C130.643 61.7556 130.063 61.9728 129.448 61.9728C128.072 61.9728 127.023 61.0316 127.023 59.4027ZM130.281 58.9321C130.281 58.1719 129.955 57.7375 129.267 57.7375C128.688 57.7375 128.181 58.1719 128.109 58.9321H130.281Z" fill="#0C419A"/>
<path d="M133.394 60.4165C132.959 60.4165 132.633 60.7061 132.633 61.1043C132.633 61.5749 132.995 61.7921 133.357 61.7921C133.394 61.7921 133.43 61.7921 133.43 61.7921C133.43 62.2989 133.068 62.7694 132.416 62.9866L132.67 63.602C133.647 63.2762 134.226 62.5161 134.226 61.5387C134.226 60.8509 133.937 60.4165 133.394 60.4165Z" fill="#0C419A"/>
<path d="M138.208 56.9773H139.149L139.222 57.4841H139.258C139.656 57.1221 140.199 56.8325 140.742 56.8325C141.973 56.8325 142.661 57.8099 142.661 59.3303C142.661 60.9954 141.647 61.9728 140.561 61.9728C140.127 61.9728 139.692 61.7918 139.294 61.4298L139.33 62.2262V63.7465H138.172V56.9773H138.208ZM141.466 59.3665C141.466 58.3891 141.14 57.8099 140.416 57.8099C140.054 57.8099 139.728 57.9909 139.366 58.3529V60.6334C139.728 60.923 140.054 61.0316 140.344 61.0316C140.959 61.0316 141.466 60.4524 141.466 59.3665Z" fill="#0C419A"/>
<path d="M144.109 56.9773H145.05L145.122 57.846H145.158C145.52 57.1944 146.027 56.8687 146.534 56.8687C146.787 56.8687 146.932 56.9049 147.077 56.9773L146.896 57.9546C146.715 57.9184 146.606 57.8822 146.389 57.8822C145.991 57.8822 145.52 58.1356 145.231 58.8958V61.8641H144.073V56.9773H144.109Z" fill="#0C419A"/>
<path d="M147.548 59.4027C147.548 57.7737 148.67 56.8325 149.864 56.8325C151.059 56.8325 152.181 57.7737 152.181 59.4027C152.181 61.0316 151.059 61.9728 149.864 61.9728C148.67 61.9728 147.548 61.0316 147.548 59.4027ZM150.987 59.4027C150.987 58.4253 150.552 57.7737 149.828 57.7737C149.104 57.7737 148.67 58.4253 148.67 59.4027C148.67 60.38 149.104 61.0316 149.828 61.0316C150.552 61.0316 150.987 60.38 150.987 59.4027Z" fill="#0C419A"/>
<path d="M153.629 60.1993V57.8825H152.941V57.0138L153.701 56.9775L153.846 55.6382H154.787V56.9775H156.018V57.8825H154.787V60.1993C154.787 60.7785 155.005 61.068 155.475 61.068C155.656 61.068 155.837 60.9956 155.982 60.9595L156.163 61.792C155.909 61.8644 155.547 61.973 155.149 61.973C154.063 61.973 153.629 61.249 153.629 60.1993Z" fill="#0C419A"/>
<path d="M156.923 59.4027C156.923 57.81 158.009 56.8326 159.167 56.8326C160.471 56.8326 161.195 57.7738 161.195 59.1493C161.195 59.3665 161.158 59.5837 161.158 59.6923H158.045C158.154 60.5611 158.697 61.0679 159.493 61.0679C159.928 61.0679 160.253 60.9231 160.615 60.7059L161.014 61.4299C160.543 61.7557 159.964 61.9729 159.348 61.9729C157.973 61.9729 156.923 61.0317 156.923 59.4027ZM160.181 58.9321C160.181 58.172 159.855 57.7376 159.167 57.7376C158.588 57.7376 158.081 58.172 158.009 58.9321H160.181ZM158.552 55.6018L160 53.8643L160.796 54.6244L159.131 56.1448L158.552 55.6018Z" fill="#0C419A"/>
<path d="M162.208 62.7329C162.208 62.3347 162.462 61.9727 162.896 61.6831V61.6469C162.643 61.5021 162.462 61.2125 162.462 60.8506C162.462 60.4886 162.715 60.1266 163.005 59.9456V59.9094C162.679 59.656 162.353 59.1854 162.353 58.6062C162.353 57.484 163.258 56.8687 164.272 56.8687C164.525 56.8687 164.778 56.9049 164.996 56.9773H166.733V57.8098H165.828C165.973 57.9908 166.118 58.2804 166.118 58.6424C166.118 59.7284 165.285 60.3076 164.272 60.3076C164.054 60.3076 163.837 60.2714 163.62 60.1628C163.475 60.2714 163.367 60.4162 163.367 60.6334C163.367 60.923 163.548 61.0677 164.163 61.0677H165.032C166.19 61.0677 166.806 61.4297 166.806 62.2623C166.806 63.2397 165.792 63.9999 164.199 63.9999C163.077 63.9999 162.208 63.6017 162.208 62.7329ZM165.756 62.4795C165.756 62.1175 165.466 62.0089 164.887 62.0089H164.235C163.982 62.0089 163.765 61.9727 163.584 61.9365C163.33 62.1175 163.222 62.3709 163.222 62.5881C163.222 63.0225 163.692 63.2759 164.453 63.2759C165.213 63.2759 165.756 62.9139 165.756 62.4795ZM165.14 58.6062C165.14 57.9908 164.778 57.6288 164.308 57.6288C163.837 57.6288 163.475 57.9908 163.475 58.6062C163.475 59.2216 163.837 59.5836 164.308 59.5836C164.778 59.5836 165.14 59.2216 165.14 58.6062Z" fill="#0C419A"/>
<path d="M167.53 59.4027C167.53 57.8099 168.615 56.8325 169.774 56.8325C171.077 56.8325 171.801 57.7737 171.801 59.1493C171.801 59.3665 171.765 59.5836 171.765 59.6922H168.652C168.76 60.561 169.303 61.0678 170.1 61.0678C170.534 61.0678 170.86 60.923 171.222 60.7058L171.62 61.4298C171.149 61.7556 170.57 61.9728 169.955 61.9728C168.579 61.9728 167.53 61.0316 167.53 59.4027ZM170.787 58.9321C170.787 58.1719 170.462 57.7375 169.774 57.7375C169.195 57.7375 168.688 58.1719 168.616 58.9321H170.787Z" fill="#0C419A"/>
<path d="M173.213 56.9773H174.154L174.226 57.846H174.262C174.624 57.1944 175.131 56.8687 175.638 56.8687C175.891 56.8687 176.036 56.9049 176.181 56.9773L176 57.9546C175.819 57.9184 175.71 57.8822 175.493 57.8822C175.095 57.8822 174.624 58.1356 174.335 58.8958V61.8641H173.177V56.9773H173.213Z" fill="#0C419A"/>
<path d="M179.258 59.4027C179.258 57.7737 180.416 56.8325 181.719 56.8325C182.335 56.8325 182.805 57.0859 183.131 57.3755L182.588 58.1357C182.335 57.9185 182.081 57.7737 181.792 57.7737C180.995 57.7737 180.452 58.4253 180.452 59.4027C180.452 60.38 180.995 61.0316 181.756 61.0316C182.154 61.0316 182.48 60.8506 182.769 60.5972L183.24 61.3574C182.769 61.7556 182.19 61.9728 181.647 61.9728C180.271 61.9728 179.258 61.0316 179.258 59.4027Z" fill="#0C419A"/>
<path d="M184.471 54.8418H185.629V56.6518L185.593 57.5929C185.991 57.1947 186.498 56.8689 187.149 56.8689C188.199 56.8689 188.633 57.5929 188.633 58.8237V61.8644H187.475V58.9685C187.475 58.1721 187.258 57.8463 186.715 57.8463C186.28 57.8463 185.991 58.0635 185.593 58.4617V61.8644H184.434V54.8418H184.471Z" fill="#0C419A"/>
<path d="M190.009 60.5249C190.009 59.4751 190.878 58.9321 192.869 58.7149C192.869 58.2082 192.652 57.7376 192 57.7376C191.529 57.7376 191.059 57.9548 190.624 58.2081L190.19 57.448C190.733 57.1222 191.421 56.7964 192.181 56.7964C193.412 56.7964 193.991 57.5566 193.991 58.8959V61.7919H193.086L193.014 61.2489H192.977C192.543 61.6109 192.036 61.9005 191.457 61.9005C190.588 61.9729 190.009 61.3937 190.009 60.5249ZM192.869 60.5611V59.4751C191.529 59.6561 191.095 59.9819 191.095 60.4887C191.095 60.9231 191.385 61.1041 191.783 61.1041C192.217 61.0679 192.507 60.8869 192.869 60.5611Z" fill="#0C419A"/>
<path d="M195.366 59.4027C195.366 57.7737 196.525 56.8325 197.828 56.8325C198.443 56.8325 198.914 57.0859 199.24 57.3755L198.697 58.1357C198.443 57.9185 198.19 57.7737 197.9 57.7737C197.104 57.7737 196.561 58.4253 196.561 59.4027C196.561 60.38 197.104 61.0316 197.864 61.0316C198.262 61.0316 198.588 60.8506 198.878 60.5972L199.348 61.3574C198.878 61.7556 198.299 61.9728 197.756 61.9728C196.38 61.9728 195.366 61.0316 195.366 59.4027Z" fill="#0C419A"/>
<path d="M200.507 60.0183V56.9775H201.665V59.8735C201.665 60.6698 201.882 60.9956 202.425 60.9956C202.86 60.9956 203.149 60.8146 203.511 60.3079V56.9775H204.67V61.8644H203.729L203.656 61.1404H203.584C203.149 61.6472 202.679 61.973 202.027 61.973C200.977 61.973 200.507 61.249 200.507 60.0183Z" fill="#0C419A"/>
<path d="M206.335 56.9773H207.276L207.349 57.6289H207.385C207.819 57.1945 208.326 56.8325 208.978 56.8325C210.027 56.8325 210.462 57.5565 210.462 58.7873V61.828H209.376V58.9321C209.376 58.1357 209.159 57.8099 208.616 57.8099C208.181 57.8099 207.892 58.0271 207.493 58.4253V61.828H206.335V56.9773Z" fill="#0C419A"/>
<path d="M3.294 32.2536L2.85961 31.8554C3.04061 31.6382 3.1854 31.3848 3.2216 31.1314C3.2216 30.8418 3.113 30.697 2.96821 30.697C2.78721 30.697 2.71481 30.8418 2.60622 31.1314L2.42522 31.5296C2.28043 31.8192 2.02703 32.1088 1.59264 32.1088C1.08585 32.0726 0.723862 31.6382 0.760061 30.9866C0.760061 30.6246 0.941058 30.2988 1.19445 30.0454L1.59264 30.4074C1.44784 30.5884 1.33925 30.7694 1.33925 31.0228C1.33925 31.24 1.41165 31.421 1.59264 31.421C1.77364 31.421 1.84603 31.24 1.95463 30.9866L2.13563 30.6246C2.31662 30.2626 2.57002 30.0454 2.96821 30.0816C3.475 30.1178 3.87318 30.5522 3.83698 31.2762C3.76459 31.5296 3.58359 31.964 3.294 32.2536Z" fill="#0C419A"/>
<path d="M0.506788 27.9455L0 27.0768L0.470589 26.7872L0.904977 27.6922L0.506788 27.9455ZM0.868779 28.6333L1.15837 26.751L1.73756 26.8234L1.55656 28.0179L2.17195 28.0903L2.31674 27.0768L2.89593 27.1492L2.75113 28.1627L3.43891 28.2713L3.61991 27.0406L4.19909 27.113L3.9095 29.0315L0.868779 28.6333Z" fill="#0C419A"/>
<path d="M2.78729 25.991C1.80991 25.7376 1.41172 24.9775 1.59271 24.2173C1.70131 23.8553 1.9547 23.5657 2.2081 23.4209L2.53389 23.8915C2.35289 24.0001 2.2081 24.1449 2.1719 24.3621C2.0633 24.7603 2.35289 25.1585 2.93208 25.3033C3.54746 25.448 3.94566 25.2671 4.05425 24.8327C4.12665 24.5793 4.05425 24.3621 3.90946 24.1811L4.41624 23.9277C4.63344 24.2535 4.70584 24.6155 4.59724 24.9775C4.45244 25.7738 3.76466 26.2444 2.78729 25.991Z" fill="#0C419A"/>
<path d="M3.72862 22.8417L2.20825 22.2625L2.46165 21.6109L4.05441 22.2263C4.59739 22.4435 4.85079 22.3349 4.99558 22.0091C5.10418 21.6833 4.99558 21.4299 4.4526 21.2127L2.85984 20.5973L3.07703 19.9819L4.59739 20.5611C5.53857 20.9231 5.79196 21.4661 5.53857 22.1901C5.24898 22.9503 4.66979 23.1675 3.72862 22.8417Z" fill="#0C419A"/>
<path d="M3.69238 18.5702L4.19917 17.5928C4.48876 17.0136 4.92315 16.6516 5.57473 16.9774C6.19012 17.3032 6.22632 17.8824 5.90053 18.4616L5.71953 18.8236L6.69691 19.3303L6.37111 19.9457L3.69238 18.5702ZM5.39374 18.2806C5.57473 17.9548 5.50234 17.7376 5.24894 17.5928C4.99555 17.448 4.81455 17.5928 4.63356 17.8824L4.48876 18.2082L5.21274 18.6064L5.39374 18.2806ZM5.68333 18.534L5.50234 17.9186L7.45709 17.8462L7.0951 18.534H5.68333Z" fill="#0C419A"/>
<path d="M5.42993 15.3121L5.79192 14.7329L8.32586 16.3619L7.96387 16.9411L5.42993 15.3121Z" fill="#0C419A"/>
<path d="M7.34847 13.5024L6.84168 14.1539L6.37109 13.792L7.78286 11.9458L8.25345 12.3078L7.74666 12.9594L9.70141 14.4435L9.30322 14.9865L7.34847 13.5024Z" fill="#0C419A"/>
<path d="M8.54297 11.0408L9.84614 9.66528L10.2805 10.0635L9.44795 10.9323L9.88234 11.3304L10.5701 10.5703L11.0045 10.9684L10.3167 11.7286L10.8235 12.1992L11.6923 11.2942L12.1267 11.6924L10.8235 13.1042L8.54297 11.0408ZM8.61537 10.2807L8.68777 9.26709L9.26695 9.30329L9.08596 10.2807H8.61537Z" fill="#0C419A"/>
<path d="M13.6108 9.70117L13.647 9.08578C13.9366 9.08578 14.2262 9.04959 14.4072 8.86859C14.6244 8.68759 14.6606 8.5066 14.552 8.3618C14.4434 8.21701 14.2624 8.2532 13.9728 8.3618L13.5746 8.4704C13.2488 8.579 12.8506 8.5428 12.5972 8.18081C12.3077 7.78262 12.4162 7.20343 12.8868 6.80524C13.1764 6.58805 13.5384 6.47945 13.9004 6.51565V7.05864C13.647 7.05864 13.466 7.09483 13.2488 7.23963C13.0678 7.38443 12.9954 7.56542 13.104 7.67402C13.2126 7.81882 13.4298 7.74642 13.6832 7.67402L14.0814 7.56542C14.4796 7.45683 14.8054 7.49303 15.0588 7.85502C15.3484 8.25321 15.3122 8.83239 14.733 9.30298C14.4434 9.59257 14.009 9.73737 13.6108 9.70117Z" fill="#0C419A"/>
<path d="M15.4571 6.80527C14.9503 5.97269 15.1313 5.17631 15.8191 4.77812C16.5069 4.34374 17.267 4.56093 17.7738 5.39351C18.2806 6.22609 18.0996 7.02247 17.4118 7.45686C16.7602 7.85505 15.9639 7.63785 15.4571 6.80527ZM17.2308 5.7555C16.905 5.24871 16.5069 5.06772 16.1449 5.28491C15.7829 5.5021 15.7467 5.9365 16.0725 6.44328C16.3983 6.95007 16.7964 7.16727 17.1584 6.95007C17.4842 6.73288 17.5204 6.26229 17.2308 5.7555Z" fill="#0C419A"/>
<path d="M18.6786 4.92289C18.2442 4.01791 18.6062 3.22153 19.294 2.89574C19.656 2.71474 20.018 2.75094 20.2714 2.85954L20.1266 3.40253C19.9456 3.33013 19.7284 3.33013 19.5474 3.40253C19.1854 3.58352 19.0406 4.05411 19.294 4.5971C19.5474 5.17628 19.9818 5.35728 20.38 5.17628C20.5972 5.06769 20.742 4.88669 20.7782 4.6695L21.285 4.92289C21.1764 5.28488 20.9592 5.57447 20.5972 5.71927C19.9094 6.04506 19.113 5.82787 18.6786 4.92289Z" fill="#0C419A"/>
<path d="M21.3574 2.09952L22.009 1.88232L23.0588 4.70585L22.4072 4.92305L21.3574 2.09952Z" fill="#0C419A"/>
<path d="M24.0724 1.19473L24.8688 0.977539L26.5701 3.65627L25.8824 3.83727L25.1222 2.4617C24.9774 2.20831 24.7964 1.88252 24.6516 1.59292C24.6516 1.91871 24.6878 2.28071 24.6878 2.6065V4.19926L24 4.38025L24.0724 1.19473ZM24.2172 2.96849L25.629 2.6065L25.7738 3.11328L24.362 3.47527L24.2172 2.96849Z" fill="#0C419A"/>
<path d="M26.896 0.506548L27.5838 0.397949L27.9458 2.82329L29.1041 2.6423L29.1765 3.22148L27.3304 3.51107L26.896 0.506548Z" fill="#0C419A"/>
<path d="M29.8281 0.108598L31.7105 0L31.7467 0.579185L30.5521 0.651585L30.5883 1.26697L31.6019 1.19457L31.6381 1.77376L30.6245 1.84615L30.6607 2.53394L31.9277 2.46154L31.9639 3.04072L30.0453 3.14932L29.8281 0.108598Z" fill="#0C419A"/>
<path d="M100.127 45.0319V30.5522H103.928V45.1767C103.928 46.0093 104.29 46.2627 104.615 46.2627C104.76 46.2627 104.869 46.2627 105.086 46.2265L105.557 49.0862C105.122 49.2672 104.507 49.412 103.638 49.412C101.032 49.4482 100.127 47.6744 100.127 45.0319Z" fill="#0C419A"/>
<path d="M75.7284 40.3985C76.0542 39.3487 79.4569 31.8555 79.4569 31.8555H83.475V49.1224H79.8551V38.4437L76.8506 46.1903H74.5339L71.5293 38.4437V49.1224H67.9094V31.8555H71.9275C71.9275 31.8555 75.294 39.3487 75.656 40.3985H75.7284Z" fill="#0C419A"/>
<path d="M107.113 45.4662C107.113 42.7151 109.43 41.1585 114.534 40.6155C114.461 39.4572 113.737 38.7694 112.326 38.7694C111.24 38.7694 110.154 39.24 108.923 39.9639L107.584 37.3938C109.213 36.3802 111.059 35.6562 113.086 35.6562C116.38 35.6562 118.19 37.5748 118.19 41.5929V49.0861H114.57V47.8191C114.57 47.8191 113.086 49.4119 110.986 49.4119C108.597 49.4481 107.113 47.6743 107.113 45.4662ZM114.534 45.249V42.9685C111.819 43.3305 110.769 44.1992 110.769 45.1766C110.769 46.0092 111.348 46.4436 112.253 46.4436C113.086 46.4074 113.846 45.9368 114.534 45.249Z" fill="#0C419A"/>
<path d="M86.1177 45.4662C86.1177 42.7151 88.4344 41.1585 93.5385 40.6155C93.4661 39.4572 92.7421 38.7694 91.3303 38.7694C90.2444 38.7694 89.1584 39.24 87.9276 39.9639L86.5883 37.3938C88.2172 36.3802 90.0634 35.6562 92.0905 35.6562C95.3846 35.6562 97.1946 37.5748 97.1946 41.5929V49.0861H93.5747V47.8191C93.5747 47.8191 92.0905 49.4119 89.991 49.4119C87.6018 49.4481 86.1177 47.6743 86.1177 45.4662ZM93.5385 45.249V42.9685C90.8236 43.3305 89.7738 44.1992 89.7738 45.1766C89.7738 46.0092 90.353 46.4436 91.258 46.4436C92.0905 46.4074 92.8507 45.9368 93.5385 45.249Z" fill="#0C419A"/>
<path d="M128.941 30.5522V36.9233C128.072 36.0907 127.203 35.6563 125.792 35.6563C123.077 35.6563 120.47 38.2627 120.47 42.5341C120.47 46.8418 122.534 49.412 125.719 49.412C127.457 49.412 128.832 48.1088 128.941 48.0002V49.1224H132.742V30.5522H128.941ZM126.697 46.2627C125.213 46.2627 124.344 45.1043 124.344 42.5341C124.344 40.0364 125.43 38.878 126.661 38.878C127.348 38.878 128.108 39.0952 128.941 39.7106V45.1043C128.181 45.9369 127.529 46.2627 126.697 46.2627Z" fill="#0C419A"/>
<path d="M135.674 32.0364C135.674 30.8419 136.615 30.0093 137.882 30.0093C139.149 30.0093 140.09 30.8419 140.09 32.0364C140.09 33.231 139.149 34.0636 137.882 34.0636C136.615 34.0636 135.674 33.1948 135.674 32.0364ZM135.964 35.9821H139.765V49.1224H135.964V35.9821Z" fill="#0C419A"/>
<path d="M142.154 42.5341C142.154 38.2626 144.833 35.6562 148.054 35.6562C151.71 35.6562 153.738 38.3712 153.738 41.9549C153.738 42.6427 153.665 43.3667 153.593 43.6924H145.882C146.208 45.611 147.511 46.4798 149.213 46.4798C150.19 46.4798 151.023 46.0816 151.964 45.5386L153.267 47.9639C151.964 48.9051 150.226 49.4481 148.706 49.4481C144.905 49.4481 142.154 46.9142 142.154 42.5341ZM150.48 41.1223C150.48 39.6743 149.647 38.6246 148.127 38.6246C146.932 38.6246 146.1 39.4572 145.846 41.1223H150.48Z" fill="#0C419A"/>
<path d="M67.9094 23.3122V8.83252H71.7103V23.457C71.7103 24.2895 72.0723 24.5429 72.3981 24.5429C72.5429 24.5429 72.6515 24.5429 72.8687 24.5067L73.3393 27.3665C72.9049 27.5475 72.2895 27.6923 71.4207 27.6923C68.7782 27.6923 67.9094 25.9547 67.9094 23.3122Z" fill="#0C419A"/>
<path d="M88.1085 23.276L89.1582 27.4027H93.1039L87.7827 10.1357H83.4026L78.0813 27.4027H82.027L83.0768 23.276H88.1085ZM83.8732 20.2353L85.5383 13.6833H85.6831L87.3483 20.2353H83.8732Z" fill="#0C419A"/>
<path d="M93.8643 25.8822L95.5656 23.4569C96.724 24.3619 97.81 24.8325 98.8959 24.8325C100.018 24.8325 100.525 24.3981 100.525 23.7103C100.525 22.8415 99.2579 22.4433 97.9186 21.9365C96.3258 21.3211 94.5158 20.2352 94.5158 18.0632C94.5158 15.6017 96.4706 13.9365 99.4389 13.9365C101.394 13.9365 102.878 14.7329 103.964 15.6017L102.262 17.9546C101.357 17.2668 100.452 16.8325 99.5475 16.8325C98.5701 16.8325 98.0634 17.2306 98.0634 17.8822C98.0634 18.7148 99.2579 19.0406 100.597 19.5474C102.226 20.1628 104.072 21.1039 104.072 23.4931C104.072 25.8822 102.226 27.7284 98.7873 27.7284C97.1222 27.6922 95.1674 26.9682 93.8643 25.8822Z" fill="#0C419A"/>
<path d="M105.267 25.8822L106.968 23.4569C108.127 24.3619 109.213 24.8325 110.299 24.8325C111.421 24.8325 111.927 24.3981 111.927 23.7103C111.927 22.8415 110.661 22.4433 109.321 21.9365C107.728 21.3211 105.918 20.2352 105.918 18.0632C105.918 15.6017 107.873 13.9365 110.842 13.9365C112.796 13.9365 114.28 14.7329 115.366 15.6017L113.665 17.9546C112.76 17.2668 111.855 16.8325 110.95 16.8325C109.973 16.8325 109.466 17.2306 109.466 17.8822C109.466 18.7148 110.661 19.0406 112 19.5474C113.629 20.1628 115.475 21.1039 115.475 23.4931C115.475 25.8822 113.629 27.7284 110.19 27.7284C108.525 27.6922 106.57 26.9682 105.267 25.8822Z" fill="#0C419A"/>
<path d="M132.235 14.2623H136.036V16.1447C136.76 14.6967 138.534 14.1899 139.439 14.1899C140.163 14.1899 140.597 14.2985 140.959 14.4433L140.561 17.9908C140.054 17.8461 139.475 17.5927 138.932 17.5927C137.448 17.6289 136.145 18.8958 136.036 20.561V27.4026H132.235V14.2623Z" fill="#0C419A"/>
<path d="M155.692 14.2623H159.493V15.9275C160.579 14.8777 161.665 13.9365 163.439 13.9365C166.226 13.9365 167.421 15.9637 167.421 19.2216V27.3664H163.62V19.6922C163.62 17.8098 163.113 17.1944 162.027 17.1944C161.086 17.1944 160.362 17.665 159.529 18.4614V27.3302H155.728V14.2623H155.692Z" fill="#0C419A"/>
<path d="M180.597 20.8144C180.597 16.5429 183.276 13.9365 186.498 13.9365C190.154 13.9365 192.181 16.6515 192.181 20.2352C192.181 20.923 192.108 21.6469 192.036 21.9727H184.326C184.651 23.8913 185.955 24.7601 187.656 24.7601C188.633 24.7601 189.466 24.3619 190.407 23.8189L191.71 26.2442C190.407 27.1854 188.67 27.7284 187.149 27.7284C183.384 27.6922 180.597 25.1582 180.597 20.8144ZM188.959 19.4026C188.959 17.9546 188.127 16.9049 186.606 16.9049C185.412 16.9049 184.579 17.7374 184.326 19.4026H188.959Z" fill="#0C419A"/>
<path d="M141.792 23.7465C141.792 20.9953 144.108 19.4388 149.213 18.8958C149.14 17.7374 148.416 17.0496 147.004 17.0496C145.918 17.0496 144.832 17.5202 143.602 18.2442L142.262 15.6741C143.891 14.6605 145.737 13.9365 147.765 13.9365C151.059 13.9365 152.869 15.8551 152.869 19.8732V27.3664H149.249V26.0994C149.249 26.0994 147.765 27.6922 145.665 27.6922C143.276 27.6922 141.792 25.9546 141.792 23.7465ZM149.213 23.5293V21.2487C146.498 21.6107 145.448 22.4795 145.448 23.4569C145.448 24.2895 146.027 24.7239 146.932 24.7239C147.801 24.6877 148.561 24.2171 149.213 23.5293Z" fill="#0C419A"/>
<path d="M76.7058 8.76025C75.9095 8.76025 74.8235 9.37564 74.8235 10.4616C74.8235 11.439 75.5837 12.0182 76.3801 12.0182C76.4163 12.0182 76.4524 12.0182 76.4886 12.0182C76.4524 13.1765 75.4027 13.8281 74.8959 14.1177L75.9095 15.5295C79.2398 14.4797 79.9276 8.79645 76.7058 8.76025Z" fill="#0C419A"/>
<path d="M125.285 14.2627V22.9505C124.525 24.0003 123.946 24.3984 123.005 24.3984C121.919 24.3984 121.412 23.8193 121.412 21.9007V14.2627H117.611V22.5523C117.611 25.6654 118.95 27.7288 121.665 27.7288C124.127 27.7288 125.357 26.0636 125.357 26.0636V27.403H129.122V14.2627H125.285Z" fill="#0C419A"/>
<path d="M176.253 24.5795C174.588 24.5795 173.357 23.0953 173.357 20.851C173.357 18.5704 174.552 17.0863 176.362 17.0863C176.941 17.0863 177.448 17.3035 178.027 17.8103L179.837 15.3125C178.896 14.5161 177.701 13.9731 176.145 13.9731C172.597 13.9731 169.484 16.5071 169.484 20.851C169.484 25.1949 172.199 27.7288 175.783 27.7288C177.195 27.7288 178.787 27.2944 180.018 26.1722L178.642 23.5297C177.919 24.1451 177.122 24.5795 176.253 24.5795Z" fill="#0C419A"/>
<path d="M34.7509 8.94117C34.6785 8.79638 34.4251 8.68778 34.2441 8.65158C34.0269 8.61538 33.9184 8.61538 33.9184 8.61538C33.665 8.54298 28.6333 8.61538 27.4387 9.41176C27.3301 8.61538 27.0405 7.63801 25.665 7.34841C24.6876 7.13122 22.588 8.07239 23.2758 10.1719C23.3844 10.5339 23.6378 10.7873 23.9998 10.9683C24.1808 11.0769 24.4704 11.0045 24.6876 11.5837C24.76 11.7285 24.8686 11.7285 24.9772 11.6923C25.0496 11.6561 25.0858 11.6923 25.1944 11.7647C25.303 11.8371 25.3754 11.8009 25.3754 11.8009C25.3754 11.8009 25.4116 11.8371 25.484 11.8371C25.5202 11.8371 25.665 11.8009 25.665 11.8371C26.0631 12.1629 26.5337 11.6561 26.7147 11.3303C26.8957 11.8733 27.3663 13.2851 27.3663 13.2851C27.2215 13.1403 25.6288 12.7059 24.8686 13.5385C24.217 14.2624 23.7102 15.276 23.1672 16.9774C23.0224 17.448 22.7328 17.6652 22.1898 17.8824C21.3211 18.2081 21.8279 18.6063 22.045 18.6425C22.588 18.7511 23.8188 18.6787 24.0722 18.5701C24.398 18.4253 24.1446 17.6652 24.5066 17.1946C24.8324 16.7964 25.0858 16.4344 25.303 16.181C25.303 16.724 25.303 17.0136 25.0134 17.7014C24.76 18.3529 23.9636 18.6787 23.7102 18.9683C23.2758 19.5113 24.2532 19.5475 24.5066 19.4751C25.1582 19.2579 25.5926 19.2579 25.846 19.1131C26.2079 18.8959 25.9546 18.3167 26.0631 18.0995C26.3889 17.448 27.5111 16.0362 27.6559 15.819C27.6921 15.7828 27.6921 15.7466 27.6921 15.7104C28.4885 15.9638 29.3935 16.0362 29.7193 16C31.5654 15.7828 31.9636 14.4796 31.7826 13.4299C31.6016 12.4887 31.0224 11.9095 30.8414 11.6199C30.3708 10.8597 30.0812 10.4615 29.9002 10.2443C30.4432 10.0995 33.3754 9.30317 33.3754 9.33936C33.484 9.59276 33.7374 9.62896 33.8098 9.70136C33.9908 9.80995 34.0993 9.62896 34.027 9.59276C33.8822 9.48416 33.846 9.41176 33.846 9.41176C34.0993 9.41176 34.3165 9.44796 34.4975 9.44796C34.7871 9.48416 34.8957 9.04977 34.7509 8.94117Z" fill="#0C419A"/>
<path fill-rule="evenodd" clip-rule="evenodd" d="M60.9228 26.6787C60.4522 24.1447 58.0993 22.5882 56.8685 22.0452C56.0359 21.6832 55.674 21.6108 55.5292 21.5746C55.3482 21.5022 55.2034 21.466 55.131 21.4298C55.2034 20.8868 55.855 20.8506 56.2531 20.0542C57.3391 17.8099 55.0948 16.2533 53.4658 16.6153C52.6694 16.7963 52.1626 17.0497 52.0178 17.6651C51.9454 17.9909 51.6921 17.9909 51.2939 18.4253C51.1491 18.5701 51.4387 18.7873 51.5111 18.8959C51.5111 18.9321 51.4387 19.0407 51.4025 19.1854C51.3663 19.3302 51.4025 19.294 51.4025 19.3302C51.4025 19.3302 51.3301 19.475 51.3301 19.656C51.3301 19.656 51.1491 20.018 51.3301 20.4162C51.3663 20.5248 51.5835 20.742 51.6559 21.2488C51.6559 21.3212 51.6559 21.3574 51.3663 21.2488C51.2939 21.2126 48.2893 20.3438 47.9636 20.1266C47.6016 19.8732 44.6332 16.6515 44.3074 16.0361C44.1264 15.6741 43.9454 15.4569 43.8369 15.4569C43.1491 15.4931 44.3436 16.7601 43.6559 16.3257C43.4749 16.2171 42.9681 15.8551 42.9319 15.8189C42.7871 15.7103 42.8233 15.7465 42.7509 15.6017C42.6785 15.4569 42.6061 15.3483 42.5337 15.3121C42.4613 15.2759 42.4251 15.2397 42.3527 15.2397C42.2441 15.2759 42.2803 15.3483 42.2441 15.3483C42.2441 15.3483 42.1717 15.3483 42.1355 15.3483C41.9545 15.3845 42.0993 15.8189 42.1355 16.0361C42.1355 16.0723 42.6061 17.1945 42.7509 17.3755C43.5111 17.8823 44.235 18.3529 44.2712 18.3529C45.1038 19.294 46.045 20.4886 46.9138 21.3936C47.6016 22.1176 50.7147 23.9275 50.7871 23.9637C51.0043 24.0723 51.3301 24.7601 50.8595 29.5022C50.6785 31.2759 49.4115 35.0769 50.0269 37.0316C50.4251 38.2986 50.8595 39.1673 51.3301 42.6425C51.4387 43.4026 50.8233 43.9094 49.9545 44.5248C49.6287 44.7782 48.6513 45.3574 48.5789 45.4298C48.4341 45.5746 48.5789 45.7918 48.7599 45.9004C48.9771 45.9728 49.3391 46.19 49.5563 46.2262C49.9183 46.2986 50.4613 46.2624 51.0405 45.9366C51.6559 45.5746 51.7283 45.5384 52.0902 45.285C52.5246 45.0316 53.0314 44.9592 53.1762 44.5248C53.3572 43.9456 52.8504 43.1131 52.9228 42.7511C53.2848 40.0361 53.7554 38.6968 53.0676 37.0316C52.9228 36.7058 54.045 33.0859 54.1536 33.5565C54.3346 34.4977 54.407 37.3574 54.4432 39.4569C54.4432 40.3981 55.2034 43.656 55.4568 44.8506C55.8188 46.6606 52.778 48.1085 53.4296 48.6515C53.5744 48.7601 53.9726 48.9411 54.3346 49.0135C54.769 49.0859 55.0948 49.0135 55.4568 48.8687C55.674 48.7963 55.9997 48.3981 56.0721 48.3257C56.7237 47.5293 56.5065 47.7465 57.0495 47.1674C57.4839 46.6606 57.1581 45.7918 57.1219 45.3574C57.0133 44.4524 57.1219 44.199 57.0857 42.5339C57.0857 40.6153 57.1943 40.0723 57.3029 39.3483C57.7735 36.1628 58.0631 34.4253 58.2441 33.0859V33.0135C58.2441 33.0135 58.4613 33.0859 58.5699 32.9411C58.7509 32.6515 58.7147 32.3981 58.7509 32.2171C58.7871 32.0361 58.8595 32.2533 58.8595 32.2533C58.8595 32.2533 59.0043 32.6877 59.0043 32.8325C59.0043 33.0497 58.8595 33.3031 58.7509 33.6289C58.6423 33.9909 58.9319 34.0271 59.0043 34.0633C59.0767 34.0995 60.0178 33.4117 60.1626 33.1583C60.3074 32.8687 60.2712 32.5067 60.3074 32.3257C60.3436 31.8551 60.054 30.5158 60.054 30.5158C60.2712 29.6108 61.0676 27.3302 60.9228 26.6787ZM58.7509 30.3348C58.6423 30.7692 58.6061 30.371 58.2079 32.0361L58.2441 31.7827C58.2441 31.5655 58.2441 31.3121 58.2441 31.0588C58.2441 28.9954 56.6513 24.5791 57.6287 25.4841C57.6287 25.4841 58.7871 26.2805 59.0043 26.8959C59.1853 27.4388 59.1491 28.742 58.7509 30.3348Z" fill="#0C419A"/>
<path d="M20.0541 35.2941C19.6921 34.9683 18.4252 33.2669 17.6288 32.5791C17.0858 31.9999 16.941 31.7103 16.5066 31.095C15.0225 29.1402 14.6967 28.9954 13.6831 28.8506C13.4659 28.7058 13.5383 28.561 13.5745 28.5248C14.9139 28.018 14.4795 26.8597 14.4433 26.8235C14.3709 26.5701 14.5519 26.4615 14.5519 26.2081C14.5519 25.8099 14.4795 25.5203 14.3709 25.2307C14.4071 25.0497 14.4433 24.7963 14.2623 24.5429C13.5383 23.6379 11.7283 23.6017 10.7872 24.2171C10.027 24.7239 10.4614 25.0859 10.2442 25.8461C10.0994 26.2805 10.2442 26.6787 10.5338 27.0045C10.57 27.2578 11.3302 27.7284 11.1854 28.2352C11.0406 28.7782 10.1718 28.8868 10.1718 28.8868C10.0632 28.923 9.99079 28.9592 9.91839 28.9954C8.54282 29.7918 7.20346 30.9502 7.02246 32.1809C7.09486 33.1945 8.68762 34.6787 9.70119 35.475C9.84599 37.2126 10.932 39.8551 11.0044 39.9637C11.1492 40.2895 10.6786 39.7103 9.5926 39.3483C9.04961 39.1674 8.36183 38.4434 8.18083 39.3121C8.10843 39.6741 8.25323 40.2895 7.92744 41.0859C7.67404 41.6651 7.96364 42.6063 8.61522 42.6063C9.08581 42.6063 9.3754 41.1583 9.3754 41.1583C9.3754 41.1583 11.6559 42.2805 12.7419 41.9185C13.3935 41.7013 13.5383 39.1674 12.8867 36.8868C12.6695 36.0904 13.2849 38.19 14.8053 39.9999C15.1311 40.3981 14.8415 40.7239 15.0587 42.2443C15.1311 42.8235 15.1311 42.9683 15.1311 43.2217C15.0949 43.9456 14.4071 44.8144 15.9998 45.2126C17.6288 45.647 17.484 46.009 18.4976 45.3212C18.9682 45.0316 17.0858 44.8144 16.7238 43.7284C16.7238 43.6922 16.6876 43.5474 16.6876 43.475C16.6514 42.6063 17.0496 40.6153 16.9048 39.8913C16.3256 36.4524 14.8777 34.8597 14.6967 34.0633C14.6967 31.6741 14.5157 30.914 14.7329 31.4569C14.7691 31.5655 15.2759 32.3981 15.7826 33.0497C15.8188 33.1221 15.8912 33.1945 15.9636 33.2669C16.1084 33.4479 16.2532 33.5927 16.398 33.6651C17.4116 34.5339 19.0044 35.5836 19.2216 35.8008C19.2216 35.8008 19.3302 36.8506 19.7645 36.7782C20.1627 36.7058 22.0813 35.8732 22.0451 35.656C21.9727 35.3665 20.0903 35.3664 20.0541 35.2941ZM9.62879 33.9909C9.3392 33.4479 8.54282 32.3981 8.61522 32.2171C9.04961 31.4931 9.5202 31.276 9.665 31.3122C9.77359 31.3483 9.62879 33.9909 9.62879 33.9909Z" fill="#0C419A"/>
<path d="M51.7644 54.769C51.692 54.7328 50.5699 54.2985 49.5563 52.7057C49.1219 51.9817 45.7554 45.7917 45.321 44.5971C44.416 42.208 37.3572 37.9003 37.0676 37.6469C36.8504 37.4659 36.8866 37.0677 36.959 36.7781C37.5382 34.7509 37.321 32.9772 37.4296 32.6876C37.7192 31.9998 38.1536 31.0224 37.8278 30.3709L37.1038 29.2125C37.1038 29.2125 40.8323 30.5519 41.7011 30.3709C42.4613 30.2261 46.1898 27.6197 46.407 27.5111C46.9138 27.2577 48.1807 27.6197 49.4477 26.2442C49.9183 25.7374 49.5925 25.5564 49.4839 25.6288C49.5201 25.5926 49.2667 25.3754 49.0495 25.5202C48.7599 25.7012 47.7101 25.9908 47.8911 25.846C48.6513 25.2668 48.1083 25.122 48.1083 25.122C47.7825 25.4116 46.2984 25.7736 45.9726 26.027C45.6468 26.3166 45.3934 26.5338 45.2486 26.6423C44.3436 27.1491 42.7871 27.9093 41.2305 28.2713C40.9047 28.3437 37.9364 26.389 36.1988 26.1356C35.2577 25.9908 34.9319 26.0632 34.4251 26.208C33.8097 26.389 33.8459 25.484 34.3165 25.2668C34.5699 25.1582 34.9681 25.0858 35.1129 24.7962C35.2939 24.4342 35.0767 24.1084 35.0767 24.036C35.0767 23.9998 35.1129 23.9636 35.0405 23.8188C35.0043 23.7102 35.0043 23.7826 35.0043 23.674C35.0043 23.6016 34.9681 23.5292 34.9319 23.4568C34.9319 23.4206 34.9319 23.2758 34.9681 23.2396C35.33 22.95 35.1853 22.8052 35.1129 22.769C35.0043 22.6604 34.4613 22.4433 34.4251 22.0813C34.3527 21.5021 34.1355 21.2125 34.0631 20.9229C34.0269 20.8143 33.9545 20.1265 33.6649 19.8731C33.3029 19.5473 32.5427 19.1491 30.8776 19.5835C30.3346 19.7283 30.4432 19.9817 29.14 20.2351C27.5472 20.5247 26.6785 22.8776 26.8233 23.855C26.9319 24.6514 27.6196 24.2532 27.5834 24.6152C27.5472 25.1582 27.4748 26.0632 28.6332 26.389C28.8866 26.4614 30.407 26.208 30.9862 26.3166C30.9862 26.3166 31.4567 26.3528 31.2034 26.8233C31.0948 27.0405 29.5744 27.6559 29.1762 27.8007C28.1988 28.1989 25.6287 32.398 24.8685 32.7962C24.2169 33.122 23.8187 33.3754 23.5653 33.5564C22.5156 34.208 21.502 35.0405 20.9228 35.0043C20.1626 34.9681 19.5472 35.3301 19.0405 36.4523C18.8957 36.7781 18.9681 36.9591 19.2577 37.0315C19.3663 37.1401 19.511 37.2849 19.7282 37.2849C19.9454 37.5021 20.1988 37.3573 20.416 37.2487C20.9952 36.9229 21.14 36.6695 21.3572 36.5971C21.9364 36.4161 25.3391 35.0767 26.0993 34.4976C27.2577 33.8822 29.5744 31.493 30.0812 31.4568C30.5518 31.4206 31.7101 32.4704 31.3481 34.4976C31.2396 35.1853 30.3708 36.4161 29.9002 37.1401C28.959 38.5519 29.683 39.8188 29.502 40.1084C28.5246 41.7012 27.3301 43.8369 25.3029 45.6469C24.5065 46.1537 22.8776 46.2623 21.9726 46.5157C19.9454 47.0948 17.8097 48.5428 16.2893 49.4116C15.7825 49.7012 15.3119 49.0858 14.6604 49.0134C14.045 48.941 13.9726 49.9184 13.6468 50.7871C13.5382 51.0405 13.502 51.1853 13.0314 52.2713C12.8504 52.7057 12.3436 53.9727 12.8504 54.5157C13.321 55.1672 14.407 53.1401 15.2758 52.1627C15.7101 51.6559 15.9997 51.4749 16.9771 51.2577C17.5925 51.1129 22.5518 49.7736 25.8097 49.0496C25.8821 49.0496 25.9907 49.0134 26.0631 48.9772C30.2984 47.8912 34.6785 42.3528 34.7509 42.389L41.9545 45.9365C42.6785 46.3347 42.6785 47.7102 43.5472 49.3392C44.054 50.3166 44.8142 51.1491 47.8911 54.1537C48.2893 54.5519 47.9635 55.1672 48.1445 55.7826C48.3255 56.4342 48.6513 56.4342 49.2305 56.398C49.7735 56.3618 50.2441 56.2532 50.7871 56.217C51.4748 56.1808 51.2939 56.2532 52.0902 56.3618C52.4884 56.4342 53.3572 56.5428 54.0088 55.9274C55.131 54.7329 52.8504 55.312 51.7644 54.769Z" fill="#0C419A"/>
<path d="M43.9818 51.6559C43.8732 51.4387 43.6198 51.3663 43.4026 51.4749C40.3257 53.0314 36.8868 53.864 33.4117 53.864C29.5384 53.864 25.7374 52.8504 22.4071 50.9319C22.1899 50.8233 21.9365 50.8957 21.7917 51.0767C21.6831 51.2939 21.7555 51.5473 21.9365 51.6921C25.4117 53.683 29.3574 54.7328 33.3755 54.7328C36.9954 54.7328 40.5791 53.864 43.7646 52.235C44.018 52.1265 44.0904 51.8731 43.9818 51.6559Z" fill="#0C419A"/>
<path d="M12.8868 22.8777C12.8144 22.8777 12.7782 22.8777 12.7058 22.8415C12.4886 22.733 12.3801 22.4796 12.4886 22.2624C14.4796 17.9185 17.7013 14.3348 21.828 11.9094C22.0452 11.8008 22.2986 11.8732 22.4434 12.0542C22.552 12.2714 22.4796 12.5248 22.2986 12.6696C18.3167 14.9863 15.2036 18.4253 13.3212 22.6244C13.2126 22.8054 13.0678 22.8777 12.8868 22.8777Z" fill="#0C419A"/>
<path d="M50.2804 17.2672C50.1718 17.2672 50.027 17.231 49.9546 17.1224C46.4795 13.1767 41.7012 10.6066 36.5247 9.88258C36.2713 9.84639 36.1265 9.62919 36.1627 9.3758C36.1989 9.1224 36.4161 8.97761 36.6695 9.01381C42.0632 9.77399 47.0225 12.4527 50.6424 16.5432C50.7872 16.7242 50.7872 17.0138 50.6062 17.1586C50.4976 17.231 50.389 17.2672 50.2804 17.2672Z" fill="#0C419A"/>
<path d="M224.325 49.271C224.072 49.271 223.891 49.0902 223.891 48.8733V14.1975C223.891 13.9806 224.072 13.7998 224.325 13.7998C224.578 13.7998 224.759 13.9806 224.759 14.1975V48.8733C224.759 49.0902 224.578 49.271 224.325 49.271Z" fill="#0C419A"/>
<g clip-path="url(#clip0_1015_10000)">
<path d="M238.557 34.3C237.677 34.604 236.797 34.732 235.901 34.732C234.621 34.732 233.821 34.044 233.821 32.076V30.14C233.821 28.188 234.621 27.5 235.901 27.5C236.797 27.5 237.677 27.644 238.557 27.916L239.005 25.996C237.965 25.66 236.941 25.5 235.885 25.5C233.357 25.5 231.469 26.956 231.469 29.948V32.284C231.469 35.276 233.357 36.732 235.885 36.732C236.941 36.732 237.965 36.572 239.005 36.236L238.557 34.3Z" fill="#0084B2"/>
<path d="M240.523 33.068C240.523 35.356 242.027 36.732 244.091 36.732C246.155 36.732 247.659 35.356 247.659 33.068V31.612C247.659 29.324 246.155 27.948 244.091 27.948C242.027 27.948 240.523 29.324 240.523 31.612V33.068ZM242.795 32.988V31.692C242.795 30.588 243.115 29.884 244.091 29.884C245.051 29.884 245.387 30.588 245.387 31.692V32.988C245.387 34.092 245.051 34.796 244.091 34.796C243.131 34.796 242.795 34.092 242.795 32.988Z" fill="#0084B2"/>
<path d="M249.41 36.524H251.698V31.548C251.698 30.444 252.002 29.884 252.674 29.884C253.346 29.884 253.65 30.556 253.65 31.82V36.524H255.938V31.82C255.938 30.556 256.242 29.884 256.914 29.884C257.586 29.884 257.89 30.444 257.89 31.548V36.524H260.178V31.388C260.178 29.084 258.706 27.948 256.914 27.948C256.002 27.948 255.282 28.332 254.786 29.02C254.306 28.348 253.586 27.948 252.674 27.948C250.898 27.948 249.41 29.084 249.41 31.388V36.524Z" fill="#0084B2"/>
<path d="M264.218 36.348C264.554 36.54 265.114 36.732 265.642 36.732C267.338 36.732 268.954 35.58 268.954 33.212V31.452C268.954 29.244 267.338 27.948 265.45 27.948C263.546 27.948 261.93 29.244 261.93 31.452V39.9H264.218V36.348ZM264.218 34.508V31.532C264.218 30.428 264.746 29.884 265.45 29.884C266.138 29.884 266.666 30.428 266.666 31.532V33.132C266.666 34.348 266.122 34.796 265.434 34.796C265.018 34.796 264.618 34.668 264.218 34.508Z" fill="#0084B2"/>
<path d="M271.284 36.524H273.572V29.676H274.916V28.156H273.572V25.596L271.284 25.9V28.156H269.924L270.26 29.676H271.284V36.524Z" fill="#0084B2"/>
<path d="M275.978 33.116C275.978 35.468 277.482 36.732 279.722 36.732C280.842 36.732 281.546 36.572 282.458 36.236L282.01 34.396C281.274 34.636 280.522 34.796 279.722 34.796C278.746 34.796 278.25 34.252 278.25 33.116V33.004H282.81V31.18C282.81 29.276 281.274 27.948 279.386 27.948C277.498 27.948 275.978 29.18 275.978 31.484V33.116ZM278.25 31.404V31.18C278.25 30.444 278.714 29.884 279.386 29.884C280.106 29.884 280.522 30.46 280.522 31.18V31.404H278.25Z" fill="#0084B2"/>
<path d="M289.194 34.2241C289.194 32.4655 290.602 31.5345 293.961 31.2241C293.961 30.5 293.527 30.1896 292.661 30.1896C291.794 30.1896 291.252 30.3965 290.386 30.9138L289.411 29.2586C290.494 28.6379 291.794 28.2241 293.094 28.2241C295.261 28.2241 296.561 29.3621 296.561 31.9483V36.6034H294.394L294.177 35.7758C293.527 36.3965 292.661 36.8103 291.686 36.8103C290.061 36.8103 289.194 35.5689 289.194 34.2241ZM293.961 34.1207V32.7758C292.227 32.9827 291.686 33.3965 291.686 34.0172C291.686 34.6379 292.011 34.7414 292.552 34.7414C293.094 34.7414 293.527 34.5345 293.961 34.1207Z" fill="#0C419A"/>
<path d="M298.728 28.3275H300.894L301.111 29.362C301.761 28.7413 302.519 28.1206 303.711 28.1206C304.903 28.1206 305.661 28.6378 306.094 29.4654C306.853 28.7413 307.611 28.1206 308.803 28.1206C310.644 28.1206 311.511 29.362 311.511 31.4309V36.4999H308.911V31.7413C308.911 30.6034 308.586 30.293 307.936 30.293C307.286 30.293 307.069 30.4999 306.528 31.0172V36.4999H303.819V31.7413C303.819 30.6034 303.494 30.293 302.844 30.293C302.194 30.293 301.978 30.4999 301.436 31.0172V36.4999H298.836V28.3275H298.728Z" fill="#0C419A"/>
<path d="M313.136 32.362C313.136 29.6723 315.086 28.1206 317.144 28.1206C319.203 28.1206 320.828 29.8792 320.828 32.0516C320.828 34.2241 320.828 32.9827 320.828 33.1896H315.736C315.953 34.3275 316.819 34.7413 317.903 34.7413C318.986 34.7413 319.094 34.5344 319.744 34.2241L320.611 35.7758C319.744 36.3965 318.553 36.7068 317.469 36.7068C314.978 36.7068 313.136 35.1551 313.136 32.362ZM318.553 31.431C318.553 30.6034 318.228 29.9827 317.253 29.9827C316.278 29.9827 315.844 30.4999 315.628 31.431H318.553Z" fill="#0C419A"/>
<path d="M322.669 33.8106V24.9141H325.269V33.9141C325.269 34.4313 325.594 34.6382 325.811 34.6382C326.028 34.6382 326.028 34.6382 326.136 34.6382L326.461 36.5003C326.136 36.6037 325.703 36.7072 325.161 36.7072C323.319 36.7072 322.669 35.5692 322.669 33.8106Z" fill="#0C419A"/>
<path d="M327.436 25.8448C327.436 25.0172 328.086 24.5 328.952 24.5C329.819 24.5 330.469 25.0172 330.469 25.8448C330.469 26.6724 329.819 27.1897 328.952 27.1897C328.086 27.1897 327.436 26.6724 327.436 25.8448ZM327.652 28.3276H330.252V36.5H327.652V28.3276Z" fill="#0C419A"/>
</g>
<defs>
<clipPath id="clip0_1015_10000">
<rect width="104" height="15" fill="white" transform="translate(231.469 24.5)"/>
</clipPath>
</defs>
</svg>
